<?xml version="1.0" encoding="UTF-8" standalone="no"?>
<svg
   width="421.6"
   height="310.0"
   viewBox="0 0 850 625"
   version="1.1"
   id="svg33"
   sodipodi:docname="circuit_herald_demo.svg"
   inkscape:version="1.3.2 (091e20e, 2023-11-25, custom)"
   xmlns:inkscape="http://www.inkscape.org/namespaces/inkscape"
   xmlns:sodipodi="http://sodipodi.sourceforge.net/DTD/sodipodi-0.dtd"
   xmlns="http://www.w3.org/2000/svg"
   xmlns:svg="http://www.w3.org/2000/svg">
  <sodipodi:namedview
     id="namedview33"
     pagecolor="#ffffff"
     bordercolor="#666666"
     borderopacity="1.0"
     inkscape:showpageshadow="2"
     inkscape:pageopacity="0.0"
     inkscape:pagecheckerboard="0"
     inkscape:deskcolor="#d1d1d1"
     inkscape:zoom="2.1532542"
     inkscape:cx="212.0047"
     inkscape:cy="160.91923"
     inkscape:window-width="3072"
     inkscape:window-height="1622"
     inkscape:window-x="2696"
     inkscape:window-y="-11"
     inkscape:window-maximized="1"
     inkscape:current-layer="svg33" />
  <defs
     id="defs1" />
  <rect
     style="fill:#ffffff;stroke-width:15.603;stroke-opacity:0.42"
     id="rect33"
     width="850"
     height="625"
     x="0"
     y="3.5527137e-15" />
  <rect
     x="100"
     y="25"
     width="650"
     height="575"
     fill="none"
     stroke="black"
     id="rect1" />
  <rect
     x="92"
     y="124.5"
     width="8"
     height="1"
     fill="black"
     id="rect2" />
  <rect
     x="92"
     y="249.5"
     width="8"
     height="1"
     fill="black"
     id="rect3" />
  <rect
     x="92"
     y="374.5"
     width="8"
     height="1"
     fill="black"
     id="rect4" />
  <rect
     x="92"
     y="499.5"
     width="8"
     height="1"
     fill="black"
     id="rect5" />
  <text
     x="80"
     y="127"
     font-size="25"
     fill="black"
     text-anchor="end"
     dominant-baseline="middle"
     transform="rotate(0, 80, 127)"
     id="text5">0</text>
  <text
     x="80"
     y="252"
     font-size="25"
     fill="black"
     text-anchor="end"
     dominant-baseline="middle"
     transform="rotate(0, 80, 252)"
     id="text6">1</text>
  <text
     x="80"
     y="377"
     font-size="25"
     fill="black"
     text-anchor="end"
     dominant-baseline="middle"
     transform="rotate(0, 80, 377)"
     id="text7">2</text>
  <text
     x="80"
     y="502"
     font-size="25"
     fill="black"
     text-anchor="end"
     dominant-baseline="middle"
     transform="rotate(0, 80, 502)"
     id="text8">3</text>
  <rect
     x="149.95"
     y="121.0"
     width="50.1"
     height="8"
     fill="black"
     id="rect8" />
  <rect
     x="149.95"
     y="246.0"
     width="50.1"
     height="8"
     fill="black"
     id="rect9" />
  <rect
     x="149.95"
     y="371.0"
     width="50.1"
     height="8"
     fill="black"
     id="rect10" />
  <rect
     x="149.95"
     y="496.0"
     width="50.1"
     height="8"
     fill="black"
     id="rect11" />
  <rect
     x="199.95"
     y="121.0"
     width="50.1"
     height="8"
     fill="black"
     id="rect12" />
  <rect
     x="199.95"
     y="246.0"
     width="50.1"
     height="8"
     fill="black"
     id="rect13" />
  <rect
     x="250"
     y="100.0"
     width="50"
     height="175"
     fill="#3e368d"
     stroke="black"
     rx="5"
     ry="5"
     id="rect14" />
  <text
     x="275.0"
     y="187.5"
     font-size="25"
     fill="white"
     text-anchor="middle"
     dominant-baseline="middle"
     transform="rotate(0, 275.0, 187.5)"
     id="text14">BS</text>
  <text
     x="275.0"
     y="300"
     font-size="18"
     fill="black"
     text-anchor="middle"
     dominant-baseline="middle"
     transform="rotate(0, 275.0, 300)"
     id="text15">r = 0.5</text>
  <rect
     x="299.95"
     y="121.0"
     width="50.1"
     height="8"
     fill="black"
     id="rect15" />
  <rect
     x="299.95"
     y="246.0"
     width="50.1"
     height="8"
     fill="black"
     id="rect16" />
  <rect
     x="199.95"
     y="371.0"
     width="150.1"
     height="8"
     fill="black"
     id="rect17" />
  <rect
     x="349.95"
     y="246.0"
     width="50.1"
     height="8"
     fill="black"
     id="rect18" />
  <rect
     x="349.95"
     y="371.0"
     width="50.1"
     height="8"
     fill="black"
     id="rect19" />
  <rect
     x="400"
     y="225.0"
     width="50"
     height="175"
     fill="#3e368d"
     stroke="black"
     rx="5"
     ry="5"
     id="rect20" />
  <text
     x="425.0"
     y="312.5"
     font-size="25"
     fill="white"
     text-anchor="middle"
     dominant-baseline="middle"
     transform="rotate(0, 425.0, 312.5)"
     id="text20">BS</text>
  <text
     x="425.0"
     y="425"
     font-size="18"
     fill="black"
     text-anchor="middle"
     dominant-baseline="middle"
     transform="rotate(0, 425.0, 425)"
     id="text21">r = 0.5</text>
  <rect
     x="449.95"
     y="246.0"
     width="50.1"
     height="8"
     fill="black"
     id="rect21" />
  <rect
     x="449.95"
     y="371.0"
     width="50.1"
     height="8"
     fill="black"
     id="rect22" />
  <rect
     x="199.95"
     y="496.0"
     width="300.1"
     height="8"
     fill="black"
     id="rect23" />
  <rect
     x="499.95"
     y="371.0"
     width="50.1"
     height="8"
     fill="black"
     id="rect24" />
  <rect
     x="499.95"
     y="496.0"
     width="50.1"
     height="8"
     fill="black"
     id="rect25" />
  <rect
     x="550"
     y="350.0"
     width="50"
     height="175"
     fill="#3e368d"
     stroke="black"
     rx="5"
     ry="5"
     id="rect26" />
  <text
     x="575.0"
     y="437.5"
     font-size="25"
     fill="white"
     text-anchor="middle"
     dominant-baseline="middle"
     transform="rotate(0, 575.0, 437.5)"
     id="text26">BS</text>
  <text
     x="575.0"
     y="550"
     font-size="18"
     fill="black"
     text-anchor="middle"
     dominant-baseline="middle"
     transform="rotate(0, 575.0, 550)"
     id="text27">r = 0.5</text>
  <rect
     x="599.95"
     y="371.0"
     width="50.1"
     height="8"
     fill="black"
     id="rect27" />
  <rect
     x="599.95"
     y="496.0"
     width="50.1"
     height="8"
     fill="black"
     id="rect28" />
  <rect
     x="349.95"
     y="121.0"
     width="350.1"
     height="8"
     fill="black"
     id="rect29" />
  <rect
     x="499.95"
     y="246.0"
     width="200.1"
     height="8"
     fill="black"
     id="rect30" />
  <rect
     x="649.95"
     y="371.0"
     width="50.1"
     height="8"
     fill="black"
     id="rect31" />
  <rect
     x="649.95"
     y="496.0"
     width="50.1"
     height="8"
     fill="black"
     id="rect32" />
  <circle
     cx="150"
     cy="375"
     r="25"
     fill="#3e368d"
     stroke="black"
     id="circle32" />
  <text
     x="150"
     y="377.5"
     font-size="30"
     fill="white"
     text-anchor="middle"
     dominant-baseline="middle"
     transform="rotate(0, 150, 377.5)"
     id="text32">1</text>
  <circle
     cx="700"
     cy="375"
     r="25"
     fill="#3e368d"
     stroke="black"
     id="circle33" />
  <text
     x="700"
     y="377.5"
     font-size="30"
     fill="white"
     text-anchor="middle"
     dominant-baseline="middle"
     transform="rotate(0, 700, 377.5)"
     id="text33">1</text>
</svg>
