<?xml version="1.0" encoding="UTF-8"?>
<svg xmlns="http://www.w3.org/2000/svg" xmlns:xlink="http://www.w3.org/1999/xlink"
     width="421.6" height="310.0" viewBox="0 0 850 625">
<defs>
</defs>
<rect x="100" y="25" width="650" height="575" fill="none" stroke="black" />
<rect x="92" y="124.5" width="8" height="1" fill="black" />
<rect x="92" y="249.5" width="8" height="1" fill="black" />
<rect x="92" y="374.5" width="8" height="1" fill="black" />
<rect x="92" y="499.5" width="8" height="1" fill="black" />
<text x="80" y="127" font-size="25" fill="black" text-anchor="end" dominant-baseline="middle" transform="rotate(0, 80, 127)">0</text>
<text x="80" y="252" font-size="25" fill="black" text-anchor="end" dominant-baseline="middle" transform="rotate(0, 80, 252)">1</text>
<text x="80" y="377" font-size="25" fill="black" text-anchor="end" dominant-baseline="middle" transform="rotate(0, 80, 377)">2</text>
<text x="80" y="502" font-size="25" fill="black" text-anchor="end" dominant-baseline="middle" transform="rotate(0, 80, 502)">3</text>
<rect x="149.95" y="121.0" width="50.1" height="8" fill="black" />
<rect x="149.95" y="246.0" width="50.1" height="8" fill="black" />
<rect x="149.95" y="371.0" width="50.1" height="8" fill="black" />
<rect x="149.95" y="496.0" width="50.1" height="8" fill="black" />
<rect x="199.95" y="121.0" width="50.1" height="8" fill="black" />
<rect x="199.95" y="246.0" width="50.1" height="8" fill="black" />
<rect x="250" y="100.0" width="50" height="175" fill="#3e368d" stroke="black" rx="5" ry="5" />
<text x="275.0" y="187.5" font-size="25" fill="white" text-anchor="middle" dominant-baseline="middle" transform="rotate(0, 275.0, 187.5)">BS</text>
<text x="275.0" y="300" font-size="18" fill="black" text-anchor="middle" dominant-baseline="middle" transform="rotate(0, 275.0, 300)">r = 0.5</text>
<rect x="299.95" y="121.0" width="50.1" height="8" fill="black" />
<rect x="299.95" y="246.0" width="50.1" height="8" fill="black" />
<rect x="199.95" y="371.0" width="150.1" height="8" fill="black" />
<rect x="349.95" y="246.0" width="50.1" height="8" fill="black" />
<rect x="349.95" y="371.0" width="50.1" height="8" fill="black" />
<rect x="400" y="225.0" width="50" height="175" fill="#3e368d" stroke="black" rx="5" ry="5" />
<text x="425.0" y="312.5" font-size="25" fill="white" text-anchor="middle" dominant-baseline="middle" transform="rotate(0, 425.0, 312.5)">BS</text>
<text x="425.0" y="425" font-size="18" fill="black" text-anchor="middle" dominant-baseline="middle" transform="rotate(0, 425.0, 425)">r = 0.5</text>
<rect x="449.95" y="246.0" width="50.1" height="8" fill="black" />
<rect x="449.95" y="371.0" width="50.1" height="8" fill="black" />
<rect x="199.95" y="496.0" width="300.1" height="8" fill="black" />
<rect x="499.95" y="371.0" width="50.1" height="8" fill="black" />
<rect x="499.95" y="496.0" width="50.1" height="8" fill="black" />
<rect x="550" y="350.0" width="50" height="175" fill="#3e368d" stroke="black" rx="5" ry="5" />
<text x="575.0" y="437.5" font-size="25" fill="white" text-anchor="middle" dominant-baseline="middle" transform="rotate(0, 575.0, 437.5)">BS</text>
<text x="575.0" y="550" font-size="18" fill="black" text-anchor="middle" dominant-baseline="middle" transform="rotate(0, 575.0, 550)">r = 0.5</text>
<rect x="599.95" y="371.0" width="50.1" height="8" fill="black" />
<rect x="599.95" y="496.0" width="50.1" height="8" fill="black" />
<rect x="349.95" y="121.0" width="350.1" height="8" fill="black" />
<rect x="499.95" y="246.0" width="200.1" height="8" fill="black" />
<rect x="649.95" y="371.0" width="50.1" height="8" fill="black" />
<rect x="649.95" y="496.0" width="50.1" height="8" fill="black" />
<circle cx="150" cy="375" r="25" fill="#3e368d" stroke="black" />
<text x="150" y="377.5" font-size="30" fill="white" text-anchor="middle" dominant-baseline="middle" transform="rotate(0, 150, 377.5)">1</text>
<circle cx="700" cy="375" r="25" fill="#3e368d" stroke="black" />
<text x="700" y="377.5" font-size="30" fill="white" text-anchor="middle" dominant-baseline="middle" transform="rotate(0, 700, 377.5)">1</text>
</svg>