<?xml version="1.0" encoding="UTF-8" standalone="no"?>
<svg
   width="357.69230769230774"
   height="310.0"
   viewBox="0 0 750 650"
   version="1.1"
   id="svg25"
   sodipodi:docname="circuit_herald_demo3.svg"
   inkscape:version="1.3.2 (091e20e, 2023-11-25, custom)"
   xmlns:inkscape="http://www.inkscape.org/namespaces/inkscape"
   xmlns:sodipodi="http://sodipodi.sourceforge.net/DTD/sodipodi-0.dtd"
   xmlns="http://www.w3.org/2000/svg"
   xmlns:svg="http://www.w3.org/2000/svg">
  <sodipodi:namedview
     id="namedview25"
     pagecolor="#ffffff"
     bordercolor="#666666"
     borderopacity="1.0"
     inkscape:showpageshadow="2"
     inkscape:pageopacity="0.0"
     inkscape:pagecheckerboard="0"
     inkscape:deskcolor="#d1d1d1"
     inkscape:zoom="3.6260214"
     inkscape:cx="178.84616"
     inkscape:cy="155.12871"
     inkscape:window-width="3072"
     inkscape:window-height="1622"
     inkscape:window-x="2696"
     inkscape:window-y="-11"
     inkscape:window-maximized="1"
     inkscape:current-layer="svg25" />
  <defs
     id="defs1" />
  <rect
     style="fill:#ffffff;stroke-width:5.81248;stroke-opacity:0.42"
     id="rect26"
     width="749.99933"
     height="650"
     x="0"
     y="7.1054274e-15" />
  <rect
     x="100"
     y="25"
     width="550"
     height="600"
     fill="none"
     stroke="black"
     id="rect1" />
  <rect
     x="92"
     y="124.5"
     width="8"
     height="1"
     fill="black"
     id="rect2" />
  <rect
     x="92"
     y="249.5"
     width="8"
     height="1"
     fill="black"
     id="rect3" />
  <rect
     x="92"
     y="374.5"
     width="8"
     height="1"
     fill="black"
     id="rect4" />
  <rect
     x="92"
     y="449.5"
     width="8"
     height="1"
     fill="black"
     id="rect5" />
  <rect
     x="92"
     y="524.5"
     width="8"
     height="1"
     fill="black"
     id="rect6" />
  <text
     x="80"
     y="127"
     font-size="25"
     fill="black"
     text-anchor="end"
     dominant-baseline="middle"
     transform="rotate(0, 80, 127)"
     id="text6">0</text>
  <text
     x="80"
     y="252"
     font-size="25"
     fill="black"
     text-anchor="end"
     dominant-baseline="middle"
     transform="rotate(0, 80, 252)"
     id="text7">1</text>
  <text
     x="80"
     y="377"
     font-size="25"
     fill="black"
     text-anchor="end"
     dominant-baseline="middle"
     transform="rotate(0, 80, 377)"
     id="text8">2</text>
  <text
     x="80"
     y="452"
     font-size="25"
     fill="black"
     text-anchor="end"
     dominant-baseline="middle"
     transform="rotate(0, 80, 452)"
     id="text9">-</text>
  <text
     x="80"
     y="527"
     font-size="25"
     fill="black"
     text-anchor="end"
     dominant-baseline="middle"
     transform="rotate(0, 80, 527)"
     id="text10">3</text>
  <rect
     x="149.95"
     y="246.0"
     width="100.1"
     height="8"
     fill="black"
     id="rect10" />
  <rect
     x="149.95"
     y="371.0"
     width="100.1"
     height="8"
     fill="black"
     id="rect11" />
  <rect
     x="199.95"
     y="446.0"
     width="50.1"
     height="8"
     fill="black"
     id="rect12" />
  <rect
     x="149.95"
     y="521.0"
     width="100.1"
     height="8"
     fill="black"
     id="rect13" />
  <rect
     x="250"
     y="225.0"
     width="100"
     height="325"
     fill="#1a0f36"
     stroke="black"
     rx="5"
     ry="5"
     id="rect14" />
  <text
     x="300.0"
     y="387.5"
     font-size="25"
     fill="white"
     text-anchor="middle"
     dominant-baseline="middle"
     transform="rotate(270, 300.0, 387.5)"
     id="text14">Circuit</text>
  <rect
     x="349.95"
     y="246.0"
     width="100.1"
     height="8"
     fill="black"
     id="rect15" />
  <rect
     x="349.95"
     y="371.0"
     width="100.1"
     height="8"
     fill="black"
     id="rect16" />
  <rect
     x="349.95"
     y="446.0"
     width="50.1"
     height="8"
     fill="black"
     id="rect17" />
  <rect
     x="349.95"
     y="521.0"
     width="100.1"
     height="8"
     fill="black"
     id="rect18" />
  <circle
     cx="200"
     cy="450"
     r="25"
     fill="#3e368d"
     stroke="black"
     id="circle18" />
  <text
     x="200"
     y="452.5"
     font-size="30"
     fill="white"
     text-anchor="middle"
     dominant-baseline="middle"
     transform="rotate(0, 200, 452.5)"
     id="text18">1</text>
  <circle
     cx="400"
     cy="450"
     r="25"
     fill="#3e368d"
     stroke="black"
     id="circle19" />
  <text
     x="400"
     y="452.5"
     font-size="30"
     fill="white"
     text-anchor="middle"
     dominant-baseline="middle"
     transform="rotate(0, 400, 452.5)"
     id="text19">1</text>
  <rect
     x="449.95"
     y="371.0"
     width="50.1"
     height="8"
     fill="black"
     id="rect19" />
  <rect
     x="449.95"
     y="521.0"
     width="50.1"
     height="8"
     fill="black"
     id="rect20" />
  <rect
     x="500"
     y="350.0"
     width="50"
     height="200"
     fill="#3e368d"
     stroke="black"
     rx="5"
     ry="5"
     id="rect21" />
  <text
     x="525.0"
     y="450.0"
     font-size="25"
     fill="white"
     text-anchor="middle"
     dominant-baseline="middle"
     transform="rotate(0, 525.0, 450.0)"
     id="text21">BS</text>
  <text
     x="525.0"
     y="575"
     font-size="18"
     fill="black"
     text-anchor="middle"
     dominant-baseline="middle"
     transform="rotate(0, 525.0, 575)"
     id="text22">r = 0.5</text>
  <rect
     x="549.95"
     y="371.0"
     width="50.1"
     height="8"
     fill="black"
     id="rect22" />
  <rect
     x="549.95"
     y="521.0"
     width="50.1"
     height="8"
     fill="black"
     id="rect23" />
  <rect
     x="149.95"
     y="121.0"
     width="450.1"
     height="8"
     fill="black"
     id="rect24" />
  <rect
     x="449.95"
     y="246.0"
     width="150.1"
     height="8"
     fill="black"
     id="rect25" />
</svg>
