<?xml version="1.0" encoding="UTF-8"?>
<svg xmlns="http://www.w3.org/2000/svg" xmlns:xlink="http://www.w3.org/1999/xlink"
     width="286.1538461538462" height="310.0" viewBox="0 0 600 650">
<defs>
</defs>
<rect x="100" y="25" width="400" height="600" fill="none" stroke="black" />
<rect x="92" y="124.5" width="8" height="1" fill="black" />
<rect x="92" y="249.5" width="8" height="1" fill="black" />
<rect x="92" y="374.5" width="8" height="1" fill="black" />
<rect x="92" y="449.5" width="8" height="1" fill="black" />
<rect x="92" y="524.5" width="8" height="1" fill="black" />
<text x="80" y="127" font-size="25" fill="black" text-anchor="end" dominant-baseline="middle" transform="rotate(0, 80, 127)">0</text>
<text x="80" y="252" font-size="25" fill="black" text-anchor="end" dominant-baseline="middle" transform="rotate(0, 80, 252)">1</text>
<text x="80" y="377" font-size="25" fill="black" text-anchor="end" dominant-baseline="middle" transform="rotate(0, 80, 377)">2</text>
<text x="80" y="452" font-size="25" fill="black" text-anchor="end" dominant-baseline="middle" transform="rotate(0, 80, 452)">-</text>
<text x="80" y="527" font-size="25" fill="black" text-anchor="end" dominant-baseline="middle" transform="rotate(0, 80, 527)">3</text>
<rect x="149.95" y="246.0" width="100.1" height="8" fill="black" />
<rect x="149.95" y="371.0" width="100.1" height="8" fill="black" />
<rect x="199.95" y="446.0" width="50.1" height="8" fill="black" />
<rect x="149.95" y="521.0" width="100.1" height="8" fill="black" />
<rect x="250" y="225.0" width="100" height="325" fill="#1a0f36" stroke="black" rx="5" ry="5" />
<text x="300.0" y="387.5" font-size="25" fill="white" text-anchor="middle" dominant-baseline="middle" transform="rotate(270, 300.0, 387.5)">Circuit</text>
<rect x="349.95" y="246.0" width="100.1" height="8" fill="black" />
<rect x="349.95" y="371.0" width="100.1" height="8" fill="black" />
<rect x="349.95" y="446.0" width="50.1" height="8" fill="black" />
<rect x="349.95" y="521.0" width="100.1" height="8" fill="black" />
<circle cx="200" cy="450" r="25" fill="#3e368d" stroke="black" />
<text x="200" y="452.5" font-size="30" fill="white" text-anchor="middle" dominant-baseline="middle" transform="rotate(0, 200, 452.5)">1</text>
<circle cx="400" cy="450" r="25" fill="#3e368d" stroke="black" />
<text x="400" y="452.5" font-size="30" fill="white" text-anchor="middle" dominant-baseline="middle" transform="rotate(0, 400, 452.5)">1</text>
<rect x="149.95" y="121.0" width="300.1" height="8" fill="black" />
</svg>