<?xml version="1.0" encoding="UTF-8" standalone="no"?>
<svg
   width="297.6"
   height="310.0"
   viewBox="0 0 600 625"
   version="1.1"
   id="svg24"
   sodipodi:docname="circuit_parameter_demo3.svg"
   inkscape:version="1.3.2 (091e20e, 2023-11-25, custom)"
   xmlns:inkscape="http://www.inkscape.org/namespaces/inkscape"
   xmlns:sodipodi="http://sodipodi.sourceforge.net/DTD/sodipodi-0.dtd"
   xmlns="http://www.w3.org/2000/svg"
   xmlns:svg="http://www.w3.org/2000/svg">
  <sodipodi:namedview
     id="namedview24"
     pagecolor="#ffffff"
     bordercolor="#666666"
     borderopacity="1.0"
     inkscape:showpageshadow="2"
     inkscape:pageopacity="0.0"
     inkscape:pagecheckerboard="0"
     inkscape:deskcolor="#d1d1d1"
     inkscape:zoom="0.5"
     inkscape:cx="149"
     inkscape:cy="155"
     inkscape:window-width="3072"
     inkscape:window-height="1622"
     inkscape:window-x="2696"
     inkscape:window-y="-11"
     inkscape:window-maximized="1"
     inkscape:current-layer="svg24" />
  <defs
     id="defs1" />
  <rect
     style="fill:#ffffff;stroke-width:7.21103;stroke-opacity:0.42"
     id="rect25"
     width="600"
     height="625"
     x="0"
     y="0" />
  <rect
     x="100"
     y="25"
     width="400"
     height="575"
     fill="none"
     stroke="black"
     id="rect1" />
  <rect
     x="92"
     y="124.5"
     width="8"
     height="1"
     fill="black"
     id="rect2" />
  <rect
     x="92"
     y="249.5"
     width="8"
     height="1"
     fill="black"
     id="rect3" />
  <rect
     x="92"
     y="374.5"
     width="8"
     height="1"
     fill="black"
     id="rect4" />
  <rect
     x="92"
     y="499.5"
     width="8"
     height="1"
     fill="black"
     id="rect5" />
  <text
     x="80"
     y="127"
     font-size="25"
     fill="black"
     text-anchor="end"
     dominant-baseline="middle"
     transform="rotate(0, 80, 127)"
     id="text5">0</text>
  <text
     x="80"
     y="252"
     font-size="25"
     fill="black"
     text-anchor="end"
     dominant-baseline="middle"
     transform="rotate(0, 80, 252)"
     id="text6">1</text>
  <text
     x="80"
     y="377"
     font-size="25"
     fill="black"
     text-anchor="end"
     dominant-baseline="middle"
     transform="rotate(0, 80, 377)"
     id="text7">2</text>
  <text
     x="80"
     y="502"
     font-size="25"
     fill="black"
     text-anchor="end"
     dominant-baseline="middle"
     transform="rotate(0, 80, 502)"
     id="text8">3</text>
  <rect
     x="149.95"
     y="121.0"
     width="50.1"
     height="8"
     fill="black"
     id="rect8" />
  <rect
     x="149.95"
     y="246.0"
     width="50.1"
     height="8"
     fill="black"
     id="rect9" />
  <rect
     x="200"
     y="100.0"
     width="50"
     height="175"
     fill="#3e368d"
     stroke="black"
     rx="5"
     ry="5"
     id="rect10" />
  <text
     x="225.0"
     y="187.5"
     font-size="25"
     fill="white"
     text-anchor="middle"
     dominant-baseline="middle"
     transform="rotate(0, 225.0, 187.5)"
     id="text10">BS</text>
  <text
     x="225.0"
     y="300"
     font-size="18"
     fill="black"
     text-anchor="middle"
     dominant-baseline="middle"
     transform="rotate(0, 225.0, 300)"
     id="text11">r = 0.3</text>
  <rect
     x="249.95"
     y="121.0"
     width="50.1"
     height="8"
     fill="black"
     id="rect11" />
  <rect
     x="249.95"
     y="246.0"
     width="50.1"
     height="8"
     fill="black"
     id="rect12" />
  <rect
     x="149.95"
     y="371.0"
     width="50.1"
     height="8"
     fill="black"
     id="rect13" />
  <rect
     x="149.95"
     y="496.0"
     width="50.1"
     height="8"
     fill="black"
     id="rect14" />
  <rect
     x="200"
     y="350.0"
     width="50"
     height="175"
     fill="#3e368d"
     stroke="black"
     rx="5"
     ry="5"
     id="rect15" />
  <text
     x="225.0"
     y="437.5"
     font-size="25"
     fill="white"
     text-anchor="middle"
     dominant-baseline="middle"
     transform="rotate(0, 225.0, 437.5)"
     id="text15">BS</text>
  <text
     x="225.0"
     y="550"
     font-size="18"
     fill="black"
     text-anchor="middle"
     dominant-baseline="middle"
     transform="rotate(0, 225.0, 550)"
     id="text16">r = 0.3</text>
  <rect
     x="249.95"
     y="371.0"
     width="50.1"
     height="8"
     fill="black"
     id="rect16" />
  <rect
     x="249.95"
     y="496.0"
     width="50.1"
     height="8"
     fill="black"
     id="rect17" />
  <rect
     x="299.95"
     y="246.0"
     width="50.1"
     height="8"
     fill="black"
     id="rect18" />
  <rect
     x="299.95"
     y="371.0"
     width="50.1"
     height="8"
     fill="black"
     id="rect19" />
  <rect
     x="350"
     y="225.0"
     width="50"
     height="175"
     fill="#3e368d"
     stroke="black"
     rx="5"
     ry="5"
     id="rect20" />
  <text
     x="375.0"
     y="312.5"
     font-size="25"
     fill="white"
     text-anchor="middle"
     dominant-baseline="middle"
     transform="rotate(0, 375.0, 312.5)"
     id="text20">BS</text>
  <text
     x="375.0"
     y="425"
     font-size="18"
     fill="black"
     text-anchor="middle"
     dominant-baseline="middle"
     transform="rotate(0, 375.0, 425)"
     id="text21">r = 0.3</text>
  <rect
     x="399.95"
     y="246.0"
     width="50.1"
     height="8"
     fill="black"
     id="rect21" />
  <rect
     x="399.95"
     y="371.0"
     width="50.1"
     height="8"
     fill="black"
     id="rect22" />
  <rect
     x="299.95"
     y="121.0"
     width="150.1"
     height="8"
     fill="black"
     id="rect23" />
  <rect
     x="299.95"
     y="496.0"
     width="150.1"
     height="8"
     fill="black"
     id="rect24" />
</svg>
