<?xml version="1.0" encoding="UTF-8" standalone="no"?>
<svg
   width="1030.857142857143"
   height="440.00000000000006"
   viewBox="0 0 2050 875"
   version="1.1"
   id="svg113"
   sodipodi:docname="cnot_circuit.svg"
   inkscape:version="1.3.2 (091e20e, 2023-11-25, custom)"
   xmlns:inkscape="http://www.inkscape.org/namespaces/inkscape"
   xmlns:sodipodi="http://sodipodi.sourceforge.net/DTD/sodipodi-0.dtd"
   xmlns="http://www.w3.org/2000/svg"
   xmlns:svg="http://www.w3.org/2000/svg">
  <sodipodi:namedview
     id="namedview113"
     pagecolor="#ffffff"
     bordercolor="#666666"
     borderopacity="1.0"
     inkscape:showpageshadow="2"
     inkscape:pageopacity="0.0"
     inkscape:pagecheckerboard="0"
     inkscape:deskcolor="#d1d1d1"
     inkscape:zoom="1.2581762"
     inkscape:cx="515.42859"
     inkscape:cy="219.76254"
     inkscape:window-width="3072"
     inkscape:window-height="1622"
     inkscape:window-x="2696"
     inkscape:window-y="-11"
     inkscape:window-maximized="1"
     inkscape:current-layer="svg113" />
  <defs
     id="defs1" />
  <rect
     style="fill:#ffffff;stroke-width:10.7528;stroke-opacity:0.42"
     id="rect113"
     width="2049.9998"
     height="875"
     x="0"
     y="0" />
  <rect
     x="100"
     y="25"
     width="1850"
     height="825"
     fill="none"
     stroke="black"
     id="rect1" />
  <rect
     x="92"
     y="124.5"
     width="8"
     height="1"
     fill="black"
     id="rect2" />
  <rect
     x="92"
     y="249.5"
     width="8"
     height="1"
     fill="black"
     id="rect3" />
  <rect
     x="92"
     y="374.5"
     width="8"
     height="1"
     fill="black"
     id="rect4" />
  <rect
     x="92"
     y="499.5"
     width="8"
     height="1"
     fill="black"
     id="rect5" />
  <rect
     x="92"
     y="624.5"
     width="8"
     height="1"
     fill="black"
     id="rect6" />
  <rect
     x="92"
     y="749.5"
     width="8"
     height="1"
     fill="black"
     id="rect7" />
  <text
     x="80"
     y="127"
     font-size="25"
     fill="black"
     text-anchor="end"
     dominant-baseline="middle"
     transform="rotate(0, 80, 127)"
     id="text7">a0</text>
  <text
     x="80"
     y="252"
     font-size="25"
     fill="black"
     text-anchor="end"
     dominant-baseline="middle"
     transform="rotate(0, 80, 252)"
     id="text8">c0</text>
  <text
     x="80"
     y="377"
     font-size="25"
     fill="black"
     text-anchor="end"
     dominant-baseline="middle"
     transform="rotate(0, 80, 377)"
     id="text9">c1</text>
  <text
     x="80"
     y="502"
     font-size="25"
     fill="black"
     text-anchor="end"
     dominant-baseline="middle"
     transform="rotate(0, 80, 502)"
     id="text10">t0</text>
  <text
     x="80"
     y="627"
     font-size="25"
     fill="black"
     text-anchor="end"
     dominant-baseline="middle"
     transform="rotate(0, 80, 627)"
     id="text11">t1</text>
  <text
     x="80"
     y="752"
     font-size="25"
     fill="black"
     text-anchor="end"
     dominant-baseline="middle"
     transform="rotate(0, 80, 752)"
     id="text12">a1</text>
  <rect
     x="149.95"
     y="121.0"
     width="50.1"
     height="8"
     fill="black"
     id="rect12" />
  <rect
     x="149.95"
     y="246.0"
     width="50.1"
     height="8"
     fill="black"
     id="rect13" />
  <rect
     x="149.95"
     y="371.0"
     width="50.1"
     height="8"
     fill="black"
     id="rect14" />
  <rect
     x="149.95"
     y="496.0"
     width="50.1"
     height="8"
     fill="black"
     id="rect15" />
  <rect
     x="149.95"
     y="621.0"
     width="50.1"
     height="8"
     fill="black"
     id="rect16" />
  <rect
     x="149.95"
     y="746.0"
     width="50.1"
     height="8"
     fill="black"
     id="rect17" />
  <rect
     x="199.95"
     y="496.0"
     width="50.1"
     height="8"
     fill="black"
     id="rect18" />
  <rect
     x="199.95"
     y="621.0"
     width="50.1"
     height="8"
     fill="black"
     id="rect19" />
  <rect
     x="250"
     y="475.0"
     width="50"
     height="175"
     fill="#3e368d"
     stroke="black"
     rx="5"
     ry="5"
     id="rect20" />
  <text
     x="275.0"
     y="562.5"
     font-size="25"
     fill="white"
     text-anchor="middle"
     dominant-baseline="middle"
     transform="rotate(0, 275.0, 562.5)"
     id="text20">BS</text>
  <text
     x="275.0"
     y="675"
     font-size="18"
     fill="black"
     text-anchor="middle"
     dominant-baseline="middle"
     transform="rotate(0, 275.0, 675)"
     id="text21">r = 0.5</text>
  <rect
     x="299.95"
     y="496.0"
     width="50.1"
     height="8"
     fill="black"
     id="rect21" />
  <rect
     x="299.95"
     y="621.0"
     width="50.1"
     height="8"
     fill="black"
     id="rect22" />
  <rect
     x="349.95"
     y="621.0"
     width="50.1"
     height="8"
     fill="black"
     id="rect23" />
  <rect
     x="400"
     y="600.0"
     width="50"
     height="50"
     fill="#e8532b"
     stroke="black"
     rx="5"
     ry="5"
     id="rect24" />
  <text
     x="425.0"
     y="627"
     font-size="25"
     fill="white"
     text-anchor="middle"
     dominant-baseline="middle"
     transform="rotate(0, 425.0, 627)"
     id="text24">PS</text>
  <text
     x="425.0"
     y="675"
     font-size="18"
     fill="black"
     text-anchor="middle"
     dominant-baseline="middle"
     transform="rotate(0, 425.0, 675)"
     id="text25">φ = π/2</text>
  <rect
     x="449.95"
     y="621.0"
     width="50.1"
     height="8"
     fill="black"
     id="rect25" />
  <rect
     x="349.95"
     y="496.0"
     width="150.1"
     height="8"
     fill="black"
     id="rect26" />
  <rect
     x="499.95"
     y="496.0"
     width="50.1"
     height="8"
     fill="black"
     id="rect27" />
  <rect
     x="499.95"
     y="621.0"
     width="50.1"
     height="8"
     fill="black"
     id="rect28" />
  <rect
     x="550"
     y="475.0"
     width="50"
     height="175"
     fill="#3e368d"
     stroke="black"
     rx="5"
     ry="5"
     id="rect29" />
  <text
     x="575.0"
     y="562.5"
     font-size="25"
     fill="white"
     text-anchor="middle"
     dominant-baseline="middle"
     transform="rotate(0, 575.0, 562.5)"
     id="text29">BS</text>
  <text
     x="575.0"
     y="675"
     font-size="18"
     fill="black"
     text-anchor="middle"
     dominant-baseline="middle"
     transform="rotate(0, 575.0, 675)"
     id="text30">r = 0.5</text>
  <rect
     x="599.95"
     y="496.0"
     width="50.1"
     height="8"
     fill="black"
     id="rect30" />
  <rect
     x="599.95"
     y="621.0"
     width="50.1"
     height="8"
     fill="black"
     id="rect31" />
  <rect
     x="649.95"
     y="621.0"
     width="50.1"
     height="8"
     fill="black"
     id="rect32" />
  <rect
     x="700"
     y="600.0"
     width="50"
     height="50"
     fill="#e8532b"
     stroke="black"
     rx="5"
     ry="5"
     id="rect33" />
  <text
     x="725.0"
     y="627"
     font-size="25"
     fill="white"
     text-anchor="middle"
     dominant-baseline="middle"
     transform="rotate(0, 725.0, 627)"
     id="text33">PS</text>
  <text
     x="725.0"
     y="675"
     font-size="18"
     fill="black"
     text-anchor="middle"
     dominant-baseline="middle"
     transform="rotate(0, 725.0, 675)"
     id="text34">φ = 0</text>
  <rect
     x="749.95"
     y="621.0"
     width="50.1"
     height="8"
     fill="black"
     id="rect34" />
  <rect
     x="199.95"
     y="121.0"
     width="50.1"
     height="8"
     fill="black"
     id="rect35" />
  <rect
     x="199.95"
     y="246.0"
     width="50.1"
     height="8"
     fill="black"
     id="rect36" />
  <rect
     x="250"
     y="100.0"
     width="50"
     height="175"
     fill="#3e368d"
     stroke="black"
     rx="5"
     ry="5"
     id="rect37" />
  <text
     x="275.0"
     y="187.5"
     font-size="25"
     fill="white"
     text-anchor="middle"
     dominant-baseline="middle"
     transform="rotate(0, 275.0, 187.5)"
     id="text37">BS</text>
  <text
     x="275.0"
     y="300"
     font-size="18"
     fill="black"
     text-anchor="middle"
     dominant-baseline="middle"
     transform="rotate(0, 275.0, 300)"
     id="text38">r = 0.5</text>
  <rect
     x="299.95"
     y="121.0"
     width="50.1"
     height="8"
     fill="black"
     id="rect38" />
  <rect
     x="299.95"
     y="246.0"
     width="50.1"
     height="8"
     fill="black"
     id="rect39" />
  <rect
     x="349.95"
     y="246.0"
     width="50.1"
     height="8"
     fill="black"
     id="rect40" />
  <rect
     x="400"
     y="225.0"
     width="50"
     height="50"
     fill="#e8532b"
     stroke="black"
     rx="5"
     ry="5"
     id="rect41" />
  <text
     x="425.0"
     y="252"
     font-size="25"
     fill="white"
     text-anchor="middle"
     dominant-baseline="middle"
     transform="rotate(0, 425.0, 252)"
     id="text41">PS</text>
  <text
     x="425.0"
     y="300"
     font-size="18"
     fill="black"
     text-anchor="middle"
     dominant-baseline="middle"
     transform="rotate(0, 425.0, 300)"
     id="text42">φ = 1.231</text>
  <rect
     x="449.95"
     y="246.0"
     width="50.1"
     height="8"
     fill="black"
     id="rect42" />
  <rect
     x="349.95"
     y="121.0"
     width="150.1"
     height="8"
     fill="black"
     id="rect43" />
  <rect
     x="499.95"
     y="121.0"
     width="50.1"
     height="8"
     fill="black"
     id="rect44" />
  <rect
     x="499.95"
     y="246.0"
     width="50.1"
     height="8"
     fill="black"
     id="rect45" />
  <rect
     x="550"
     y="100.0"
     width="50"
     height="175"
     fill="#3e368d"
     stroke="black"
     rx="5"
     ry="5"
     id="rect46" />
  <text
     x="575.0"
     y="187.5"
     font-size="25"
     fill="white"
     text-anchor="middle"
     dominant-baseline="middle"
     transform="rotate(0, 575.0, 187.5)"
     id="text46">BS</text>
  <text
     x="575.0"
     y="300"
     font-size="18"
     fill="black"
     text-anchor="middle"
     dominant-baseline="middle"
     transform="rotate(0, 575.0, 300)"
     id="text47">r = 0.5</text>
  <rect
     x="599.95"
     y="121.0"
     width="50.1"
     height="8"
     fill="black"
     id="rect47" />
  <rect
     x="599.95"
     y="246.0"
     width="50.1"
     height="8"
     fill="black"
     id="rect48" />
  <rect
     x="649.95"
     y="246.0"
     width="50.1"
     height="8"
     fill="black"
     id="rect49" />
  <rect
     x="700"
     y="225.0"
     width="50"
     height="50"
     fill="#e8532b"
     stroke="black"
     rx="5"
     ry="5"
     id="rect50" />
  <text
     x="725.0"
     y="252"
     font-size="25"
     fill="white"
     text-anchor="middle"
     dominant-baseline="middle"
     transform="rotate(0, 725.0, 252)"
     id="text50">PS</text>
  <text
     x="725.0"
     y="300"
     font-size="18"
     fill="black"
     text-anchor="middle"
     dominant-baseline="middle"
     transform="rotate(0, 725.0, 300)"
     id="text51">φ = 0</text>
  <rect
     x="749.95"
     y="246.0"
     width="50.1"
     height="8"
     fill="black"
     id="rect51" />
  <rect
     x="199.95"
     y="371.0"
     width="450.1"
     height="8"
     fill="black"
     id="rect52" />
  <rect
     x="649.95"
     y="371.0"
     width="50.1"
     height="8"
     fill="black"
     id="rect53" />
  <rect
     x="649.95"
     y="496.0"
     width="50.1"
     height="8"
     fill="black"
     id="rect54" />
  <rect
     x="700"
     y="350.0"
     width="50"
     height="175"
     fill="#3e368d"
     stroke="black"
     rx="5"
     ry="5"
     id="rect55" />
  <text
     x="725.0"
     y="437.5"
     font-size="25"
     fill="white"
     text-anchor="middle"
     dominant-baseline="middle"
     transform="rotate(0, 725.0, 437.5)"
     id="text55">BS</text>
  <text
     x="725.0"
     y="550"
     font-size="18"
     fill="black"
     text-anchor="middle"
     dominant-baseline="middle"
     transform="rotate(0, 725.0, 550)"
     id="text56">r = 0.5</text>
  <rect
     x="749.95"
     y="371.0"
     width="50.1"
     height="8"
     fill="black"
     id="rect56" />
  <rect
     x="749.95"
     y="496.0"
     width="50.1"
     height="8"
     fill="black"
     id="rect57" />
  <rect
     x="799.95"
     y="496.0"
     width="50.1"
     height="8"
     fill="black"
     id="rect58" />
  <rect
     x="850"
     y="475.0"
     width="50"
     height="50"
     fill="#e8532b"
     stroke="black"
     rx="5"
     ry="5"
     id="rect59" />
  <text
     x="875.0"
     y="502"
     font-size="25"
     fill="white"
     text-anchor="middle"
     dominant-baseline="middle"
     transform="rotate(0, 875.0, 502)"
     id="text59">PS</text>
  <text
     x="875.0"
     y="550"
     font-size="18"
     fill="black"
     text-anchor="middle"
     dominant-baseline="middle"
     transform="rotate(0, 875.0, 550)"
     id="text60">φ = 1.231</text>
  <rect
     x="899.95"
     y="496.0"
     width="50.1"
     height="8"
     fill="black"
     id="rect60" />
  <rect
     x="799.95"
     y="371.0"
     width="150.1"
     height="8"
     fill="black"
     id="rect61" />
  <rect
     x="949.95"
     y="371.0"
     width="50.1"
     height="8"
     fill="black"
     id="rect62" />
  <rect
     x="949.95"
     y="496.0"
     width="50.1"
     height="8"
     fill="black"
     id="rect63" />
  <rect
     x="1000"
     y="350.0"
     width="50"
     height="175"
     fill="#3e368d"
     stroke="black"
     rx="5"
     ry="5"
     id="rect64" />
  <text
     x="1025.0"
     y="437.5"
     font-size="25"
     fill="white"
     text-anchor="middle"
     dominant-baseline="middle"
     transform="rotate(0, 1025.0, 437.5)"
     id="text64">BS</text>
  <text
     x="1025.0"
     y="550"
     font-size="18"
     fill="black"
     text-anchor="middle"
     dominant-baseline="middle"
     transform="rotate(0, 1025.0, 550)"
     id="text65">r = 0.5</text>
  <rect
     x="1049.95"
     y="371.0"
     width="50.1"
     height="8"
     fill="black"
     id="rect65" />
  <rect
     x="1049.95"
     y="496.0"
     width="50.1"
     height="8"
     fill="black"
     id="rect66" />
  <rect
     x="1099.95"
     y="496.0"
     width="50.1"
     height="8"
     fill="black"
     id="rect67" />
  <rect
     x="1150"
     y="475.0"
     width="50"
     height="50"
     fill="#e8532b"
     stroke="black"
     rx="5"
     ry="5"
     id="rect68" />
  <text
     x="1175.0"
     y="502"
     font-size="25"
     fill="white"
     text-anchor="middle"
     dominant-baseline="middle"
     transform="rotate(0, 1175.0, 502)"
     id="text68">PS</text>
  <text
     x="1175.0"
     y="550"
     font-size="18"
     fill="black"
     text-anchor="middle"
     dominant-baseline="middle"
     transform="rotate(0, 1175.0, 550)"
     id="text69">φ = π</text>
  <rect
     x="1199.95"
     y="496.0"
     width="50.1"
     height="8"
     fill="black"
     id="rect69" />
  <rect
     x="199.95"
     y="746.0"
     width="600.1"
     height="8"
     fill="black"
     id="rect70" />
  <rect
     x="799.95"
     y="621.0"
     width="50.1"
     height="8"
     fill="black"
     id="rect71" />
  <rect
     x="799.95"
     y="746.0"
     width="50.1"
     height="8"
     fill="black"
     id="rect72" />
  <rect
     x="850"
     y="600.0"
     width="50"
     height="175"
     fill="#3e368d"
     stroke="black"
     rx="5"
     ry="5"
     id="rect73" />
  <text
     x="875.0"
     y="687.5"
     font-size="25"
     fill="white"
     text-anchor="middle"
     dominant-baseline="middle"
     transform="rotate(0, 875.0, 687.5)"
     id="text73">BS</text>
  <text
     x="875.0"
     y="800"
     font-size="18"
     fill="black"
     text-anchor="middle"
     dominant-baseline="middle"
     transform="rotate(0, 875.0, 800)"
     id="text74">r = 0.5</text>
  <rect
     x="899.95"
     y="621.0"
     width="50.1"
     height="8"
     fill="black"
     id="rect74" />
  <rect
     x="899.95"
     y="746.0"
     width="50.1"
     height="8"
     fill="black"
     id="rect75" />
  <rect
     x="949.95"
     y="746.0"
     width="50.1"
     height="8"
     fill="black"
     id="rect76" />
  <rect
     x="1000"
     y="725.0"
     width="50"
     height="50"
     fill="#e8532b"
     stroke="black"
     rx="5"
     ry="5"
     id="rect77" />
  <text
     x="1025.0"
     y="752"
     font-size="25"
     fill="white"
     text-anchor="middle"
     dominant-baseline="middle"
     transform="rotate(0, 1025.0, 752)"
     id="text77">PS</text>
  <text
     x="1025.0"
     y="800"
     font-size="18"
     fill="black"
     text-anchor="middle"
     dominant-baseline="middle"
     transform="rotate(0, 1025.0, 800)"
     id="text78">φ = 1.231</text>
  <rect
     x="1049.95"
     y="746.0"
     width="50.1"
     height="8"
     fill="black"
     id="rect78" />
  <rect
     x="949.95"
     y="621.0"
     width="150.1"
     height="8"
     fill="black"
     id="rect79" />
  <rect
     x="1099.95"
     y="621.0"
     width="50.1"
     height="8"
     fill="black"
     id="rect80" />
  <rect
     x="1099.95"
     y="746.0"
     width="50.1"
     height="8"
     fill="black"
     id="rect81" />
  <rect
     x="1150"
     y="600.0"
     width="50"
     height="175"
     fill="#3e368d"
     stroke="black"
     rx="5"
     ry="5"
     id="rect82" />
  <text
     x="1175.0"
     y="687.5"
     font-size="25"
     fill="white"
     text-anchor="middle"
     dominant-baseline="middle"
     transform="rotate(0, 1175.0, 687.5)"
     id="text82">BS</text>
  <text
     x="1175.0"
     y="800"
     font-size="18"
     fill="black"
     text-anchor="middle"
     dominant-baseline="middle"
     transform="rotate(0, 1175.0, 800)"
     id="text83">r = 0.5</text>
  <rect
     x="1199.95"
     y="621.0"
     width="50.1"
     height="8"
     fill="black"
     id="rect83" />
  <rect
     x="1199.95"
     y="746.0"
     width="50.1"
     height="8"
     fill="black"
     id="rect84" />
  <rect
     x="1249.95"
     y="746.0"
     width="50.1"
     height="8"
     fill="black"
     id="rect85" />
  <rect
     x="1300"
     y="725.0"
     width="50"
     height="50"
     fill="#e8532b"
     stroke="black"
     rx="5"
     ry="5"
     id="rect86" />
  <text
     x="1325.0"
     y="752"
     font-size="25"
     fill="white"
     text-anchor="middle"
     dominant-baseline="middle"
     transform="rotate(0, 1325.0, 752)"
     id="text86">PS</text>
  <text
     x="1325.0"
     y="800"
     font-size="18"
     fill="black"
     text-anchor="middle"
     dominant-baseline="middle"
     transform="rotate(0, 1325.0, 800)"
     id="text87">φ = 0</text>
  <rect
     x="1349.95"
     y="746.0"
     width="50.1"
     height="8"
     fill="black"
     id="rect87" />
  <rect
     x="1249.95"
     y="496.0"
     width="50.1"
     height="8"
     fill="black"
     id="rect88" />
  <rect
     x="1249.95"
     y="621.0"
     width="50.1"
     height="8"
     fill="black"
     id="rect89" />
  <rect
     x="1300"
     y="475.0"
     width="50"
     height="175"
     fill="#3e368d"
     stroke="black"
     rx="5"
     ry="5"
     id="rect90" />
  <text
     x="1325.0"
     y="562.5"
     font-size="25"
     fill="white"
     text-anchor="middle"
     dominant-baseline="middle"
     transform="rotate(0, 1325.0, 562.5)"
     id="text90">BS</text>
  <text
     x="1325.0"
     y="675"
     font-size="18"
     fill="black"
     text-anchor="middle"
     dominant-baseline="middle"
     transform="rotate(0, 1325.0, 675)"
     id="text91">r = 0.5</text>
  <rect
     x="1349.95"
     y="496.0"
     width="50.1"
     height="8"
     fill="black"
     id="rect91" />
  <rect
     x="1349.95"
     y="621.0"
     width="50.1"
     height="8"
     fill="black"
     id="rect92" />
  <rect
     x="1399.95"
     y="621.0"
     width="50.1"
     height="8"
     fill="black"
     id="rect93" />
  <rect
     x="1450"
     y="600.0"
     width="50"
     height="50"
     fill="#e8532b"
     stroke="black"
     rx="5"
     ry="5"
     id="rect94" />
  <text
     x="1475.0"
     y="627"
     font-size="25"
     fill="white"
     text-anchor="middle"
     dominant-baseline="middle"
     transform="rotate(0, 1475.0, 627)"
     id="text94">PS</text>
  <text
     x="1475.0"
     y="675"
     font-size="18"
     fill="black"
     text-anchor="middle"
     dominant-baseline="middle"
     transform="rotate(0, 1475.0, 675)"
     id="text95">φ = π/2</text>
  <rect
     x="1499.95"
     y="621.0"
     width="50.1"
     height="8"
     fill="black"
     id="rect95" />
  <rect
     x="1399.95"
     y="496.0"
     width="150.1"
     height="8"
     fill="black"
     id="rect96" />
  <rect
     x="1549.95"
     y="496.0"
     width="50.1"
     height="8"
     fill="black"
     id="rect97" />
  <rect
     x="1549.95"
     y="621.0"
     width="50.1"
     height="8"
     fill="black"
     id="rect98" />
  <rect
     x="1600"
     y="475.0"
     width="50"
     height="175"
     fill="#3e368d"
     stroke="black"
     rx="5"
     ry="5"
     id="rect99" />
  <text
     x="1625.0"
     y="562.5"
     font-size="25"
     fill="white"
     text-anchor="middle"
     dominant-baseline="middle"
     transform="rotate(0, 1625.0, 562.5)"
     id="text99">BS</text>
  <text
     x="1625.0"
     y="675"
     font-size="18"
     fill="black"
     text-anchor="middle"
     dominant-baseline="middle"
     transform="rotate(0, 1625.0, 675)"
     id="text100">r = 0.5</text>
  <rect
     x="1649.95"
     y="496.0"
     width="50.1"
     height="8"
     fill="black"
     id="rect100" />
  <rect
     x="1649.95"
     y="621.0"
     width="50.1"
     height="8"
     fill="black"
     id="rect101" />
  <rect
     x="1699.95"
     y="621.0"
     width="50.1"
     height="8"
     fill="black"
     id="rect102" />
  <rect
     x="1750"
     y="600.0"
     width="50"
     height="50"
     fill="#e8532b"
     stroke="black"
     rx="5"
     ry="5"
     id="rect103" />
  <text
     x="1775.0"
     y="627"
     font-size="25"
     fill="white"
     text-anchor="middle"
     dominant-baseline="middle"
     transform="rotate(0, 1775.0, 627)"
     id="text103">PS</text>
  <text
     x="1775.0"
     y="675"
     font-size="18"
     fill="black"
     text-anchor="middle"
     dominant-baseline="middle"
     transform="rotate(0, 1775.0, 675)"
     id="text104">φ = 0</text>
  <rect
     x="1799.95"
     y="621.0"
     width="50.1"
     height="8"
     fill="black"
     id="rect104" />
  <rect
     x="649.95"
     y="121.0"
     width="1250.1"
     height="8"
     fill="black"
     id="rect105" />
  <rect
     x="799.95"
     y="246.0"
     width="1100.1"
     height="8"
     fill="black"
     id="rect106" />
  <rect
     x="1099.95"
     y="371.0"
     width="800.1"
     height="8"
     fill="black"
     id="rect107" />
  <rect
     x="1699.95"
     y="496.0"
     width="200.1"
     height="8"
     fill="black"
     id="rect108" />
  <rect
     x="1849.95"
     y="621.0"
     width="50.1"
     height="8"
     fill="black"
     id="rect109" />
  <rect
     x="1399.95"
     y="746.0"
     width="500.1"
     height="8"
     fill="black"
     id="rect110" />
  <circle
     cx="150"
     cy="125"
     r="25"
     fill="#3e368d"
     stroke="black"
     id="circle110" />
  <text
     x="150"
     y="127.5"
     font-size="30"
     fill="white"
     text-anchor="middle"
     dominant-baseline="middle"
     transform="rotate(0, 150, 127.5)"
     id="text110">0</text>
  <circle
     cx="150"
     cy="750"
     r="25"
     fill="#3e368d"
     stroke="black"
     id="circle111" />
  <text
     x="150"
     y="752.5"
     font-size="30"
     fill="white"
     text-anchor="middle"
     dominant-baseline="middle"
     transform="rotate(0, 150, 752.5)"
     id="text111">0</text>
  <circle
     cx="1900"
     cy="125"
     r="25"
     fill="#3e368d"
     stroke="black"
     id="circle112" />
  <text
     x="1900"
     y="127.5"
     font-size="30"
     fill="white"
     text-anchor="middle"
     dominant-baseline="middle"
     transform="rotate(0, 1900, 127.5)"
     id="text112">0</text>
  <circle
     cx="1900"
     cy="750"
     r="25"
     fill="#3e368d"
     stroke="black"
     id="circle113" />
  <text
     x="1900"
     y="752.5"
     font-size="30"
     fill="white"
     text-anchor="middle"
     dominant-baseline="middle"
     transform="rotate(0, 1900, 752.5)"
     id="text113">0</text>
</svg>
