<?xml version="1.0" encoding="UTF-8"?>
<svg xmlns="http://www.w3.org/2000/svg" xmlns:xlink="http://www.w3.org/1999/xlink"
     width="539.6363636363636" height="699.9999999999999" viewBox="0 0 1060 1375">
<defs>
</defs>
<rect x="100" y="25" width="860" height="1325" fill="none" stroke="black" />
<rect x="92" y="124.5" width="8" height="1" fill="black" />
<rect x="92" y="249.5" width="8" height="1" fill="black" />
<rect x="92" y="374.5" width="8" height="1" fill="black" />
<rect x="92" y="499.5" width="8" height="1" fill="black" />
<rect x="92" y="624.5" width="8" height="1" fill="black" />
<rect x="92" y="749.5" width="8" height="1" fill="black" />
<rect x="92" y="874.5" width="8" height="1" fill="black" />
<rect x="92" y="999.5" width="8" height="1" fill="black" />
<rect x="92" y="1124.5" width="8" height="1" fill="black" />
<rect x="92" y="1249.5" width="8" height="1" fill="black" />
<text x="80" y="127" font-size="25" fill="black" text-anchor="end" dominant-baseline="middle" transform="rotate(0, 80, 127)">-</text>
<text x="80" y="252" font-size="25" fill="black" text-anchor="end" dominant-baseline="middle" transform="rotate(0, 80, 252)">|1&gt;</text>
<text x="80" y="377" font-size="25" fill="black" text-anchor="end" dominant-baseline="middle" transform="rotate(0, 80, 377)">-</text>
<text x="80" y="502" font-size="25" fill="black" text-anchor="end" dominant-baseline="middle" transform="rotate(0, 80, 502)">|1&gt;</text>
<text x="80" y="627" font-size="25" fill="black" text-anchor="end" dominant-baseline="middle" transform="rotate(0, 80, 627)">-</text>
<text x="80" y="752" font-size="25" fill="black" text-anchor="end" dominant-baseline="middle" transform="rotate(0, 80, 752)">-</text>
<text x="80" y="877" font-size="25" fill="black" text-anchor="end" dominant-baseline="middle" transform="rotate(0, 80, 877)">-</text>
<text x="80" y="1002" font-size="25" fill="black" text-anchor="end" dominant-baseline="middle" transform="rotate(0, 80, 1002)">|1&gt;</text>
<text x="80" y="1127" font-size="25" fill="black" text-anchor="end" dominant-baseline="middle" transform="rotate(0, 80, 1127)">-</text>
<text x="80" y="1252" font-size="25" fill="black" text-anchor="end" dominant-baseline="middle" transform="rotate(0, 80, 1252)">-</text>
<rect x="149.95" y="246.0" width="50.1" height="8" fill="black" />
<rect x="149.95" y="371.0" width="50.1" height="8" fill="black" />
<rect x="200" y="225.0" width="100" height="175" fill="#1a0f36" stroke="black" rx="5" ry="5" />
<text x="250.0" y="312.5" font-size="35" fill="white" text-anchor="middle" dominant-baseline="middle" transform="rotate(0, 250.0, 312.5)">H</text>
<rect x="299.95" y="246.0" width="50.1" height="8" fill="black" />
<rect x="299.95" y="371.0" width="50.1" height="8" fill="black" />
<rect x="149.95" y="121.0" width="200.1" height="8" fill="black" />
<rect x="149.95" y="496.0" width="200.1" height="8" fill="black" />
<rect x="149.95" y="621.0" width="200.1" height="8" fill="black" />
<rect x="149.95" y="746.0" width="200.1" height="8" fill="black" />
<rect x="349.95" y="121.0" width="50.1" height="8" fill="black" />
<rect x="349.95" y="246.0" width="50.1" height="8" fill="black" />
<rect x="349.95" y="371.0" width="50.1" height="8" fill="black" />
<rect x="349.95" y="496.0" width="50.1" height="8" fill="black" />
<rect x="349.95" y="621.0" width="50.1" height="8" fill="black" />
<rect x="349.95" y="746.0" width="50.1" height="8" fill="black" />
<rect x="400" y="100.0" width="100" height="675" fill="#1a0f36" stroke="black" rx="5" ry="5" />
<text x="450.0" y="437.5" font-size="25" fill="white" text-anchor="middle" dominant-baseline="middle" transform="rotate(270, 450.0, 437.5)">CNOT 1</text>
<rect x="499.95" y="121.0" width="50.1" height="8" fill="black" />
<rect x="499.95" y="246.0" width="50.1" height="8" fill="black" />
<rect x="499.95" y="371.0" width="50.1" height="8" fill="black" />
<rect x="499.95" y="496.0" width="50.1" height="8" fill="black" />
<rect x="499.95" y="621.0" width="50.1" height="8" fill="black" />
<rect x="499.95" y="746.0" width="50.1" height="8" fill="black" />
<rect x="149.95" y="871.0" width="400.1" height="8" fill="black" />
<rect x="549.95" y="496.0" width="25.1" height="8" fill="black" />
<rect x="549.95" y="621.0" width="25.1" height="8" fill="black" />
<rect x="549.95" y="746.0" width="25.1" height="8" fill="black" />
<rect x="549.95" y="871.0" width="25.1" height="8" fill="black" />
<path d="M579.6251578088404,496.0 L575,496.0 L575,504.0 L575,504.0 L680.3748421911596,754.0 L685,754.0 L685,746.0 L685,746.0 Z" fill="black" />
<path d="M579.6251578088404,621.0 L575,621.0 L575,629.0 L575,629.0 L680.3748421911596,879.0 L685,879.0 L685,871.0 L685,871.0 Z" fill="black" />
<path d="M575,746.0 L575,746.0 L575,754.0 L579.6251578088404,754.0 L685,504.0 L685,504.0 L685,496.0 L680.3748421911596,496.0 Z" fill="black" />
<path d="M575,871.0 L575,871.0 L575,879.0 L579.6251578088404,879.0 L685,629.0 L685,629.0 L685,621.0 L680.3748421911596,621.0 Z" fill="black" />
<rect x="684.95" y="496.0" width="25.1" height="8" fill="black" />
<rect x="684.95" y="621.0" width="25.1" height="8" fill="black" />
<rect x="684.95" y="746.0" width="25.1" height="8" fill="black" />
<rect x="684.95" y="871.0" width="25.1" height="8" fill="black" />
<rect x="149.95" y="996.0" width="560.1" height="8" fill="black" />
<rect x="149.95" y="1121.0" width="560.1" height="8" fill="black" />
<rect x="149.95" y="1246.0" width="560.1" height="8" fill="black" />
<rect x="709.95" y="621.0" width="50.1" height="8" fill="black" />
<rect x="709.95" y="746.0" width="50.1" height="8" fill="black" />
<rect x="709.95" y="871.0" width="50.1" height="8" fill="black" />
<rect x="709.95" y="996.0" width="50.1" height="8" fill="black" />
<rect x="709.95" y="1121.0" width="50.1" height="8" fill="black" />
<rect x="709.95" y="1246.0" width="50.1" height="8" fill="black" />
<rect x="760" y="600.0" width="100" height="675" fill="#1a0f36" stroke="black" rx="5" ry="5" />
<text x="810.0" y="937.5" font-size="25" fill="white" text-anchor="middle" dominant-baseline="middle" transform="rotate(270, 810.0, 937.5)">CNOT 2</text>
<rect x="859.95" y="621.0" width="50.1" height="8" fill="black" />
<rect x="859.95" y="746.0" width="50.1" height="8" fill="black" />
<rect x="859.95" y="871.0" width="50.1" height="8" fill="black" />
<rect x="859.95" y="996.0" width="50.1" height="8" fill="black" />
<rect x="859.95" y="1121.0" width="50.1" height="8" fill="black" />
<rect x="859.95" y="1246.0" width="50.1" height="8" fill="black" />
<rect x="549.95" y="121.0" width="360.1" height="8" fill="black" />
<rect x="549.95" y="246.0" width="360.1" height="8" fill="black" />
<rect x="549.95" y="371.0" width="360.1" height="8" fill="black" />
<rect x="709.95" y="496.0" width="200.1" height="8" fill="black" />
</svg>