<?xml version="1.0" encoding="UTF-8"?>
<svg xmlns="http://www.w3.org/2000/svg" xmlns:xlink="http://www.w3.org/1999/xlink"
     width="525.76" height="310.0" viewBox="0 0 1060 625">
<defs>
</defs>
<rect x="100" y="25" width="860" height="575" fill="none" stroke="black" />
<rect x="92" y="124.5" width="8" height="1" fill="black" />
<rect x="92" y="249.5" width="8" height="1" fill="black" />
<rect x="92" y="374.5" width="8" height="1" fill="black" />
<rect x="92" y="499.5" width="8" height="1" fill="black" />
<text x="80" y="127" font-size="25" fill="black" text-anchor="end" dominant-baseline="middle" transform="rotate(0, 80, 127)">0</text>
<text x="80" y="252" font-size="25" fill="black" text-anchor="end" dominant-baseline="middle" transform="rotate(0, 80, 252)">1</text>
<text x="80" y="377" font-size="25" fill="black" text-anchor="end" dominant-baseline="middle" transform="rotate(0, 80, 377)">2</text>
<text x="80" y="502" font-size="25" fill="black" text-anchor="end" dominant-baseline="middle" transform="rotate(0, 80, 502)">3</text>
<rect x="149.95" y="121.0" width="50.1" height="8" fill="black" />
<rect x="149.95" y="246.0" width="50.1" height="8" fill="black" />
<rect x="200" y="100.0" width="50" height="175" fill="#3e368d" stroke="black" rx="5" ry="5" />
<text x="225.0" y="187.5" font-size="25" fill="white" text-anchor="middle" dominant-baseline="middle" transform="rotate(0, 225.0, 187.5)">BS</text>
<text x="225.0" y="300" font-size="18" fill="black" text-anchor="middle" dominant-baseline="middle" transform="rotate(0, 225.0, 300)">r = 0.5</text>
<rect x="249.95" y="121.0" width="50.1" height="8" fill="black" />
<rect x="249.95" y="246.0" width="50.1" height="8" fill="black" />
<rect x="149.95" y="371.0" width="50.1" height="8" fill="black" />
<rect x="149.95" y="496.0" width="50.1" height="8" fill="black" />
<rect x="200" y="350.0" width="50" height="175" fill="#3e368d" stroke="black" rx="5" ry="5" />
<text x="225.0" y="437.5" font-size="25" fill="white" text-anchor="middle" dominant-baseline="middle" transform="rotate(0, 225.0, 437.5)">BS</text>
<text x="225.0" y="550" font-size="18" fill="black" text-anchor="middle" dominant-baseline="middle" transform="rotate(0, 225.0, 550)">r = 0.5</text>
<rect x="249.95" y="371.0" width="50.1" height="8" fill="black" />
<rect x="249.95" y="496.0" width="50.1" height="8" fill="black" />
<rect x="299.95" y="246.0" width="50.1" height="8" fill="black" />
<rect x="350" y="225.0" width="50" height="50" fill="#e8532b" stroke="black" rx="5" ry="5" />
<text x="375.0" y="252" font-size="25" fill="white" text-anchor="middle" dominant-baseline="middle" transform="rotate(0, 375.0, 252)">PS</text>
<text x="375.0" y="300" font-size="18" fill="black" text-anchor="middle" dominant-baseline="middle" transform="rotate(0, 375.0, 300)">φ = 1</text>
<rect x="399.95" y="246.0" width="50.1" height="8" fill="black" />
<rect x="299.95" y="496.0" width="50.1" height="8" fill="black" />
<rect x="350" y="475.0" width="50" height="50" fill="#e8532b" stroke="black" rx="5" ry="5" />
<text x="375.0" y="502" font-size="25" fill="white" text-anchor="middle" dominant-baseline="middle" transform="rotate(0, 375.0, 502)">PS</text>
<text x="375.0" y="550" font-size="18" fill="black" text-anchor="middle" dominant-baseline="middle" transform="rotate(0, 375.0, 550)">φ = π</text>
<rect x="399.95" y="496.0" width="50.1" height="8" fill="black" />
<rect x="299.95" y="121.0" width="150.1" height="8" fill="black" />
<rect x="299.95" y="371.0" width="150.1" height="8" fill="black" />
<rect x="449.95" y="121.0" width="25.1" height="8" fill="black" />
<rect x="449.95" y="246.0" width="25.1" height="8" fill="black" />
<rect x="449.95" y="371.0" width="25.1" height="8" fill="black" />
<rect x="449.95" y="496.0" width="25.1" height="8" fill="black" />
<path d="M479.62515780884047,121.0 L475,121.0 L475,129.0 L475,129.0 L580.3748421911596,379.0 L585,379.0 L585,371.0 L585,371.0 Z" fill="black" />
<path d="M478.39656590372056,371.0 L475,371.0 L475,379.0 L475,379.0 L581.6034340962794,504.0 L585,504.0 L585,496.0 L585,496.0 Z" fill="black" />
<path d="M475,496.0 L475,496.0 L475,504.0 L480.141867626451,504.0 L585,129.0 L585,129.0 L585,121.0 L579.858132373549,121.0 Z" fill="black" />
<path d="M475,246.0 L475,246.0 L475,254.0 L475.0,254.0 L585,254.0 L585,254.0 L585,246.0 L585.0,246.0 Z" fill="black" />
<rect x="584.95" y="121.0" width="25.1" height="8" fill="black" />
<rect x="584.95" y="246.0" width="25.1" height="8" fill="black" />
<rect x="584.95" y="371.0" width="25.1" height="8" fill="black" />
<rect x="584.95" y="496.0" width="25.1" height="8" fill="black" />
<rect x="609.95" y="246.0" width="50.1" height="8" fill="black" />
<rect x="609.95" y="371.0" width="50.1" height="8" fill="black" />
<rect x="660" y="225.0" width="50" height="175" fill="#3e368d" stroke="black" rx="5" ry="5" />
<text x="685.0" y="312.5" font-size="25" fill="white" text-anchor="middle" dominant-baseline="middle" transform="rotate(0, 685.0, 312.5)">BS</text>
<text x="685.0" y="425" font-size="18" fill="black" text-anchor="middle" dominant-baseline="middle" transform="rotate(0, 685.0, 425)">r = 0.5</text>
<rect x="709.95" y="246.0" width="50.1" height="8" fill="black" />
<rect x="709.95" y="371.0" width="50.1" height="8" fill="black" />
<rect x="759.95" y="246.0" width="50.1" height="8" fill="black" />
<rect x="810" y="225.0" width="50" height="50" fill="grey" stroke="black" rx="5" ry="5" />
<text x="835.0" y="252" font-size="25" fill="white" text-anchor="middle" dominant-baseline="middle" transform="rotate(0, 835.0, 252)">L</text>
<text x="835.0" y="300" font-size="18" fill="black" text-anchor="middle" dominant-baseline="middle" transform="rotate(0, 835.0, 300)">loss = 2 dB</text>
<rect x="859.95" y="246.0" width="50.1" height="8" fill="black" />
<rect x="759.95" y="371.0" width="50.1" height="8" fill="black" />
<rect x="810" y="350.0" width="50" height="50" fill="grey" stroke="black" rx="5" ry="5" />
<text x="835.0" y="377" font-size="25" fill="white" text-anchor="middle" dominant-baseline="middle" transform="rotate(0, 835.0, 377)">L</text>
<text x="835.0" y="425" font-size="18" fill="black" text-anchor="middle" dominant-baseline="middle" transform="rotate(0, 835.0, 425)">loss = 2 dB</text>
<rect x="859.95" y="371.0" width="50.1" height="8" fill="black" />
<rect x="609.95" y="121.0" width="50.1" height="8" fill="black" />
<rect x="660" y="100.0" width="50" height="50" fill="grey" stroke="black" rx="5" ry="5" />
<text x="685.0" y="127" font-size="25" fill="white" text-anchor="middle" dominant-baseline="middle" transform="rotate(0, 685.0, 127)">L</text>
<text x="685.0" y="175" font-size="18" fill="black" text-anchor="middle" dominant-baseline="middle" transform="rotate(0, 685.0, 175)">loss = 0.3 dB</text>
<rect x="709.95" y="121.0" width="50.1" height="8" fill="black" />
<rect x="759.95" y="121.0" width="150.1" height="8" fill="black" />
<rect x="609.95" y="496.0" width="300.1" height="8" fill="black" />
</svg>