<?xml version="1.0" encoding="UTF-8"?>
<svg xmlns="http://www.w3.org/2000/svg" xmlns:xlink="http://www.w3.org/1999/xlink"
     width="760.0000000000001" height="570.0" viewBox="0 0 1500 1125">
<defs>
</defs>
<rect x="100" y="25" width="1300" height="1075" fill="none" stroke="black" />
<rect x="92" y="124.5" width="8" height="1" fill="black" />
<rect x="92" y="249.5" width="8" height="1" fill="black" />
<rect x="92" y="374.5" width="8" height="1" fill="black" />
<rect x="92" y="499.5" width="8" height="1" fill="black" />
<rect x="92" y="624.5" width="8" height="1" fill="black" />
<rect x="92" y="749.5" width="8" height="1" fill="black" />
<rect x="92" y="874.5" width="8" height="1" fill="black" />
<rect x="92" y="999.5" width="8" height="1" fill="black" />
<text x="80" y="127" font-size="25" fill="black" text-anchor="end" dominant-baseline="middle" transform="rotate(0, 80, 127)">a0</text>
<text x="80" y="252" font-size="25" fill="black" text-anchor="end" dominant-baseline="middle" transform="rotate(0, 80, 252)">a1</text>
<text x="80" y="377" font-size="25" fill="black" text-anchor="end" dominant-baseline="middle" transform="rotate(0, 80, 377)">c0</text>
<text x="80" y="502" font-size="25" fill="black" text-anchor="end" dominant-baseline="middle" transform="rotate(0, 80, 502)">c1</text>
<text x="80" y="627" font-size="25" fill="black" text-anchor="end" dominant-baseline="middle" transform="rotate(0, 80, 627)">t0</text>
<text x="80" y="752" font-size="25" fill="black" text-anchor="end" dominant-baseline="middle" transform="rotate(0, 80, 752)">t1</text>
<text x="80" y="877" font-size="25" fill="black" text-anchor="end" dominant-baseline="middle" transform="rotate(0, 80, 877)">b1</text>
<text x="80" y="1002" font-size="25" fill="black" text-anchor="end" dominant-baseline="middle" transform="rotate(0, 80, 1002)">b0</text>
<rect x="149.95" y="246.0" width="50.1" height="8" fill="black" />
<rect x="200" y="225.0" width="50" height="50" fill="#e8532b" stroke="black" rx="5" ry="5" />
<text x="225.0" y="252" font-size="25" fill="white" text-anchor="middle" dominant-baseline="middle" transform="rotate(0, 225.0, 252)">PS</text>
<text x="225.0" y="300" font-size="18" fill="black" text-anchor="middle" dominant-baseline="middle" transform="rotate(0, 225.0, 300)">φ = π</text>
<rect x="249.95" y="246.0" width="50.1" height="8" fill="black" />
<rect x="149.95" y="121.0" width="150.1" height="8" fill="black" />
<rect x="299.95" y="121.0" width="50.1" height="8" fill="black" />
<rect x="299.95" y="246.0" width="50.1" height="8" fill="black" />
<rect x="350" y="100.0" width="50" height="175" fill="#3e368d" stroke="black" rx="5" ry="5" />
<text x="375.0" y="187.5" font-size="25" fill="white" text-anchor="middle" dominant-baseline="middle" transform="rotate(0, 375.0, 187.5)">BS</text>
<text x="375.0" y="300" font-size="18" fill="black" text-anchor="middle" dominant-baseline="middle" transform="rotate(0, 375.0, 300)">r = 0.8536</text>
<rect x="399.95" y="121.0" width="50.1" height="8" fill="black" />
<rect x="399.95" y="246.0" width="50.1" height="8" fill="black" />
<rect x="449.95" y="121.0" width="50.1" height="8" fill="black" />
<rect x="500" y="100.0" width="50" height="50" fill="#e8532b" stroke="black" rx="5" ry="5" />
<text x="525.0" y="127" font-size="25" fill="white" text-anchor="middle" dominant-baseline="middle" transform="rotate(0, 525.0, 127)">PS</text>
<text x="525.0" y="175" font-size="18" fill="black" text-anchor="middle" dominant-baseline="middle" transform="rotate(0, 525.0, 175)">φ = π</text>
<rect x="549.95" y="121.0" width="50.1" height="8" fill="black" />
<rect x="149.95" y="621.0" width="50.1" height="8" fill="black" />
<rect x="149.95" y="746.0" width="50.1" height="8" fill="black" />
<rect x="200" y="600.0" width="50" height="175" fill="#3e368d" stroke="black" rx="5" ry="5" />
<text x="225.0" y="687.5" font-size="25" fill="white" text-anchor="middle" dominant-baseline="middle" transform="rotate(0, 225.0, 687.5)">BS</text>
<text x="225.0" y="800" font-size="18" fill="black" text-anchor="middle" dominant-baseline="middle" transform="rotate(0, 225.0, 800)">r = 0.5</text>
<rect x="249.95" y="621.0" width="50.1" height="8" fill="black" />
<rect x="249.95" y="746.0" width="50.1" height="8" fill="black" />
<rect x="149.95" y="871.0" width="50.1" height="8" fill="black" />
<rect x="149.95" y="996.0" width="50.1" height="8" fill="black" />
<rect x="200" y="850.0" width="50" height="175" fill="#3e368d" stroke="black" rx="5" ry="5" />
<text x="225.0" y="937.5" font-size="25" fill="white" text-anchor="middle" dominant-baseline="middle" transform="rotate(0, 225.0, 937.5)">BS</text>
<text x="225.0" y="1050" font-size="18" fill="black" text-anchor="middle" dominant-baseline="middle" transform="rotate(0, 225.0, 1050)">r = 0.8536</text>
<rect x="249.95" y="871.0" width="50.1" height="8" fill="black" />
<rect x="249.95" y="996.0" width="50.1" height="8" fill="black" />
<rect x="149.95" y="371.0" width="300.1" height="8" fill="black" />
<rect x="449.95" y="246.0" width="50.1" height="8" fill="black" />
<rect x="449.95" y="371.0" width="50.1" height="8" fill="black" />
<rect x="500" y="225.0" width="50" height="175" fill="#3e368d" stroke="black" rx="5" ry="5" />
<text x="525.0" y="312.5" font-size="25" fill="white" text-anchor="middle" dominant-baseline="middle" transform="rotate(0, 525.0, 312.5)">BS</text>
<text x="525.0" y="425" font-size="18" fill="black" text-anchor="middle" dominant-baseline="middle" transform="rotate(0, 525.0, 425)">r = 0.0</text>
<rect x="549.95" y="246.0" width="50.1" height="8" fill="black" />
<rect x="549.95" y="371.0" width="50.1" height="8" fill="black" />
<rect x="149.95" y="496.0" width="150.1" height="8" fill="black" />
<rect x="299.95" y="496.0" width="50.1" height="8" fill="black" />
<rect x="299.95" y="621.0" width="50.1" height="8" fill="black" />
<rect x="350" y="475.0" width="50" height="175" fill="#3e368d" stroke="black" rx="5" ry="5" />
<text x="375.0" y="562.5" font-size="25" fill="white" text-anchor="middle" dominant-baseline="middle" transform="rotate(0, 375.0, 562.5)">BS</text>
<text x="375.0" y="675" font-size="18" fill="black" text-anchor="middle" dominant-baseline="middle" transform="rotate(0, 375.0, 675)">r = 0.5</text>
<rect x="399.95" y="496.0" width="50.1" height="8" fill="black" />
<rect x="399.95" y="621.0" width="50.1" height="8" fill="black" />
<rect x="299.95" y="746.0" width="50.1" height="8" fill="black" />
<rect x="299.95" y="871.0" width="50.1" height="8" fill="black" />
<rect x="350" y="725.0" width="50" height="175" fill="#3e368d" stroke="black" rx="5" ry="5" />
<text x="375.0" y="812.5" font-size="25" fill="white" text-anchor="middle" dominant-baseline="middle" transform="rotate(0, 375.0, 812.5)">BS</text>
<text x="375.0" y="925" font-size="18" fill="black" text-anchor="middle" dominant-baseline="middle" transform="rotate(0, 375.0, 925)">r = 0.0</text>
<rect x="399.95" y="746.0" width="50.1" height="8" fill="black" />
<rect x="399.95" y="871.0" width="50.1" height="8" fill="black" />
<rect x="449.95" y="496.0" width="150.1" height="8" fill="black" />
<rect x="599.95" y="371.0" width="50.1" height="8" fill="black" />
<rect x="599.95" y="496.0" width="50.1" height="8" fill="black" />
<rect x="650" y="350.0" width="50" height="175" fill="#3e368d" stroke="black" rx="5" ry="5" />
<text x="675.0" y="437.5" font-size="25" fill="white" text-anchor="middle" dominant-baseline="middle" transform="rotate(0, 675.0, 437.5)">BS</text>
<text x="675.0" y="550" font-size="18" fill="black" text-anchor="middle" dominant-baseline="middle" transform="rotate(0, 675.0, 550)">r = 0.1716</text>
<rect x="699.95" y="371.0" width="50.1" height="8" fill="black" />
<rect x="699.95" y="496.0" width="50.1" height="8" fill="black" />
<rect x="449.95" y="746.0" width="50.1" height="8" fill="black" />
<rect x="500" y="725.0" width="50" height="50" fill="#e8532b" stroke="black" rx="5" ry="5" />
<text x="525.0" y="752" font-size="25" fill="white" text-anchor="middle" dominant-baseline="middle" transform="rotate(0, 525.0, 752)">PS</text>
<text x="525.0" y="800" font-size="18" fill="black" text-anchor="middle" dominant-baseline="middle" transform="rotate(0, 525.0, 800)">φ = π</text>
<rect x="549.95" y="746.0" width="50.1" height="8" fill="black" />
<rect x="449.95" y="621.0" width="150.1" height="8" fill="black" />
<rect x="599.95" y="621.0" width="50.1" height="8" fill="black" />
<rect x="599.95" y="746.0" width="50.1" height="8" fill="black" />
<rect x="650" y="600.0" width="50" height="175" fill="#3e368d" stroke="black" rx="5" ry="5" />
<text x="675.0" y="687.5" font-size="25" fill="white" text-anchor="middle" dominant-baseline="middle" transform="rotate(0, 675.0, 687.5)">BS</text>
<text x="675.0" y="800" font-size="18" fill="black" text-anchor="middle" dominant-baseline="middle" transform="rotate(0, 675.0, 800)">r = 0.1716</text>
<rect x="699.95" y="621.0" width="50.1" height="8" fill="black" />
<rect x="699.95" y="746.0" width="50.1" height="8" fill="black" />
<rect x="749.95" y="621.0" width="50.1" height="8" fill="black" />
<rect x="800" y="600.0" width="50" height="50" fill="#e8532b" stroke="black" rx="5" ry="5" />
<text x="825.0" y="627" font-size="25" fill="white" text-anchor="middle" dominant-baseline="middle" transform="rotate(0, 825.0, 627)">PS</text>
<text x="825.0" y="675" font-size="18" fill="black" text-anchor="middle" dominant-baseline="middle" transform="rotate(0, 825.0, 675)">φ = π</text>
<rect x="849.95" y="621.0" width="50.1" height="8" fill="black" />
<rect x="599.95" y="246.0" width="150.1" height="8" fill="black" />
<rect x="749.95" y="246.0" width="50.1" height="8" fill="black" />
<rect x="749.95" y="371.0" width="50.1" height="8" fill="black" />
<rect x="800" y="225.0" width="50" height="175" fill="#3e368d" stroke="black" rx="5" ry="5" />
<text x="825.0" y="312.5" font-size="25" fill="white" text-anchor="middle" dominant-baseline="middle" transform="rotate(0, 825.0, 312.5)">BS</text>
<text x="825.0" y="425" font-size="18" fill="black" text-anchor="middle" dominant-baseline="middle" transform="rotate(0, 825.0, 425)">r = 0.0</text>
<rect x="849.95" y="246.0" width="50.1" height="8" fill="black" />
<rect x="849.95" y="371.0" width="50.1" height="8" fill="black" />
<rect x="749.95" y="496.0" width="150.1" height="8" fill="black" />
<rect x="899.95" y="496.0" width="50.1" height="8" fill="black" />
<rect x="899.95" y="621.0" width="50.1" height="8" fill="black" />
<rect x="950" y="475.0" width="50" height="175" fill="#3e368d" stroke="black" rx="5" ry="5" />
<text x="975.0" y="562.5" font-size="25" fill="white" text-anchor="middle" dominant-baseline="middle" transform="rotate(0, 975.0, 562.5)">BS</text>
<text x="975.0" y="675" font-size="18" fill="black" text-anchor="middle" dominant-baseline="middle" transform="rotate(0, 975.0, 675)">r = 0.5</text>
<rect x="999.95" y="496.0" width="50.1" height="8" fill="black" />
<rect x="999.95" y="621.0" width="50.1" height="8" fill="black" />
<rect x="449.95" y="871.0" width="300.1" height="8" fill="black" />
<rect x="749.95" y="746.0" width="50.1" height="8" fill="black" />
<rect x="749.95" y="871.0" width="50.1" height="8" fill="black" />
<rect x="800" y="725.0" width="50" height="175" fill="#3e368d" stroke="black" rx="5" ry="5" />
<text x="825.0" y="812.5" font-size="25" fill="white" text-anchor="middle" dominant-baseline="middle" transform="rotate(0, 825.0, 812.5)">BS</text>
<text x="825.0" y="925" font-size="18" fill="black" text-anchor="middle" dominant-baseline="middle" transform="rotate(0, 825.0, 925)">r = 0.0</text>
<rect x="849.95" y="746.0" width="50.1" height="8" fill="black" />
<rect x="849.95" y="871.0" width="50.1" height="8" fill="black" />
<rect x="899.95" y="246.0" width="50.1" height="8" fill="black" />
<rect x="950" y="225.0" width="50" height="50" fill="#e8532b" stroke="black" rx="5" ry="5" />
<text x="975.0" y="252" font-size="25" fill="white" text-anchor="middle" dominant-baseline="middle" transform="rotate(0, 975.0, 252)">PS</text>
<text x="975.0" y="300" font-size="18" fill="black" text-anchor="middle" dominant-baseline="middle" transform="rotate(0, 975.0, 300)">φ = π</text>
<rect x="999.95" y="246.0" width="50.1" height="8" fill="black" />
<rect x="599.95" y="121.0" width="450.1" height="8" fill="black" />
<rect x="1049.95" y="121.0" width="50.1" height="8" fill="black" />
<rect x="1049.95" y="246.0" width="50.1" height="8" fill="black" />
<rect x="1100" y="100.0" width="50" height="175" fill="#3e368d" stroke="black" rx="5" ry="5" />
<text x="1125.0" y="187.5" font-size="25" fill="white" text-anchor="middle" dominant-baseline="middle" transform="rotate(0, 1125.0, 187.5)">BS</text>
<text x="1125.0" y="300" font-size="18" fill="black" text-anchor="middle" dominant-baseline="middle" transform="rotate(0, 1125.0, 300)">r = 0.8536</text>
<rect x="1149.95" y="121.0" width="50.1" height="8" fill="black" />
<rect x="1149.95" y="246.0" width="50.1" height="8" fill="black" />
<rect x="1199.95" y="121.0" width="50.1" height="8" fill="black" />
<rect x="1250" y="100.0" width="50" height="50" fill="#e8532b" stroke="black" rx="5" ry="5" />
<text x="1275.0" y="127" font-size="25" fill="white" text-anchor="middle" dominant-baseline="middle" transform="rotate(0, 1275.0, 127)">PS</text>
<text x="1275.0" y="175" font-size="18" fill="black" text-anchor="middle" dominant-baseline="middle" transform="rotate(0, 1275.0, 175)">φ = π</text>
<rect x="1299.95" y="121.0" width="50.1" height="8" fill="black" />
<rect x="899.95" y="746.0" width="150.1" height="8" fill="black" />
<rect x="1049.95" y="621.0" width="50.1" height="8" fill="black" />
<rect x="1049.95" y="746.0" width="50.1" height="8" fill="black" />
<rect x="1100" y="600.0" width="50" height="175" fill="#3e368d" stroke="black" rx="5" ry="5" />
<text x="1125.0" y="687.5" font-size="25" fill="white" text-anchor="middle" dominant-baseline="middle" transform="rotate(0, 1125.0, 687.5)">BS</text>
<text x="1125.0" y="800" font-size="18" fill="black" text-anchor="middle" dominant-baseline="middle" transform="rotate(0, 1125.0, 800)">r = 0.5</text>
<rect x="1149.95" y="621.0" width="50.1" height="8" fill="black" />
<rect x="1149.95" y="746.0" width="50.1" height="8" fill="black" />
<rect x="299.95" y="996.0" width="600.1" height="8" fill="black" />
<rect x="899.95" y="871.0" width="50.1" height="8" fill="black" />
<rect x="899.95" y="996.0" width="50.1" height="8" fill="black" />
<rect x="950" y="850.0" width="50" height="175" fill="#3e368d" stroke="black" rx="5" ry="5" />
<text x="975.0" y="937.5" font-size="25" fill="white" text-anchor="middle" dominant-baseline="middle" transform="rotate(0, 975.0, 937.5)">BS</text>
<text x="975.0" y="1050" font-size="18" fill="black" text-anchor="middle" dominant-baseline="middle" transform="rotate(0, 975.0, 1050)">r = 0.8536</text>
<rect x="999.95" y="871.0" width="50.1" height="8" fill="black" />
<rect x="999.95" y="996.0" width="50.1" height="8" fill="black" />
<rect x="1199.95" y="246.0" width="150.1" height="8" fill="black" />
<rect x="899.95" y="371.0" width="450.1" height="8" fill="black" />
<rect x="1049.95" y="496.0" width="300.1" height="8" fill="black" />
<rect x="1199.95" y="621.0" width="150.1" height="8" fill="black" />
<rect x="1199.95" y="746.0" width="150.1" height="8" fill="black" />
<rect x="1049.95" y="871.0" width="300.1" height="8" fill="black" />
<rect x="1049.95" y="996.0" width="300.1" height="8" fill="black" />
</svg>