<?xml version="1.0" encoding="UTF-8"?>
<svg xmlns="http://www.w3.org/2000/svg" xmlns:xlink="http://www.w3.org/1999/xlink"
     width="818.4" height="310.0" viewBox="0 0 1650.0 625">
<defs>
</defs>
<rect x="0" y="0" width="1650.0" height="625" fill="white" stroke="none" />
<rect x="100.0" y="25" width="1450.0" height="575" fill="none" stroke="black" />
<rect x="92.0" y="124.5" width="8" height="1" fill="black" />
<rect x="92.0" y="249.5" width="8" height="1" fill="black" />
<rect x="92.0" y="374.5" width="8" height="1" fill="black" />
<rect x="92.0" y="499.5" width="8" height="1" fill="black" />
<text x="80.0" y="127" font-size="25" fill="black" text-anchor="end" dominant-baseline="middle" transform="rotate(0, 80.0, 127)">0</text>
<text x="80.0" y="252" font-size="25" fill="black" text-anchor="end" dominant-baseline="middle" transform="rotate(0, 80.0, 252)">1</text>
<text x="80.0" y="377" font-size="25" fill="black" text-anchor="end" dominant-baseline="middle" transform="rotate(0, 80.0, 377)">2</text>
<text x="80.0" y="502" font-size="25" fill="black" text-anchor="end" dominant-baseline="middle" transform="rotate(0, 80.0, 502)">3</text>
<rect x="149.95" y="121.0" width="50.1" height="8" fill="black" />
<rect x="149.95" y="246.0" width="50.1" height="8" fill="black" />
<rect x="200.0" y="100.0" width="50" height="175" fill="#3e368d" stroke="black" rx="5" ry="5" />
<text x="225.0" y="187.5" font-size="25" fill="white" text-anchor="middle" dominant-baseline="middle" transform="rotate(0, 225.0, 187.5)">BS</text>
<text x="225.0" y="300" font-size="18" fill="black" text-anchor="middle" dominant-baseline="middle" transform="rotate(0, 225.0, 300)">r = 0.5</text>
<rect x="249.95" y="121.0" width="50.1" height="8" fill="black" />
<rect x="249.95" y="246.0" width="50.1" height="8" fill="black" />
<rect x="149.95" y="371.0" width="50.1" height="8" fill="black" />
<rect x="149.95" y="496.0" width="50.1" height="8" fill="black" />
<rect x="200.0" y="350.0" width="50" height="175" fill="#3e368d" stroke="black" rx="5" ry="5" />
<text x="225.0" y="437.5" font-size="25" fill="white" text-anchor="middle" dominant-baseline="middle" transform="rotate(0, 225.0, 437.5)">BS</text>
<text x="225.0" y="550" font-size="18" fill="black" text-anchor="middle" dominant-baseline="middle" transform="rotate(0, 225.0, 550)">r = 0.5</text>
<rect x="249.95" y="371.0" width="50.1" height="8" fill="black" />
<rect x="249.95" y="496.0" width="50.1" height="8" fill="black" />
<rect x="299.95" y="246.0" width="50.1" height="8" fill="black" />
<rect x="350.0" y="225.0" width="50" height="50" fill="#e8532b" stroke="black" rx="5" ry="5" />
<text x="375.0" y="252" font-size="25" fill="white" text-anchor="middle" dominant-baseline="middle" transform="rotate(0, 375.0, 252)">PS</text>
<text x="375.0" y="300" font-size="18" fill="black" text-anchor="middle" dominant-baseline="middle" transform="rotate(0, 375.0, 300)">φ = 1</text>
<rect x="399.95" y="246.0" width="50.1" height="8" fill="black" />
<rect x="299.95" y="496.0" width="50.1" height="8" fill="black" />
<rect x="350.0" y="475.0" width="50" height="50" fill="#e8532b" stroke="black" rx="5" ry="5" />
<text x="375.0" y="502" font-size="25" fill="white" text-anchor="middle" dominant-baseline="middle" transform="rotate(0, 375.0, 502)">PS</text>
<text x="375.0" y="550" font-size="18" fill="black" text-anchor="middle" dominant-baseline="middle" transform="rotate(0, 375.0, 550)">φ = π</text>
<rect x="399.95" y="496.0" width="50.1" height="8" fill="black" />
<rect x="299.95" y="121.0" width="150.1" height="8" fill="black" />
<rect x="299.95" y="371.0" width="150.1" height="8" fill="black" />
<rect x="449.95" y="121.0" width="25.1" height="8" fill="black" />
<rect x="449.95" y="246.0" width="25.1" height="8" fill="black" />
<rect x="449.95" y="371.0" width="25.1" height="8" fill="black" />
<rect x="449.95" y="496.0" width="25.1" height="8" fill="black" />
<path d="M479.62515780884047,121.0 L475.0,121.0 L475.0,129.0 L475.0,129.0 L580.3748421911596,379.0 L585.0,379.0 L585.0,371.0 L585.0,371.0 Z" fill="black" />
<path d="M478.39656590372056,371.0 L475.0,371.0 L475.0,379.0 L475.0,379.0 L581.6034340962794,504.0 L585.0,504.0 L585.0,496.0 L585.0,496.0 Z" fill="black" />
<path d="M475.0,496.0 L475.0,496.0 L475.0,504.0 L480.141867626451,504.0 L585.0,129.0 L585.0,129.0 L585.0,121.0 L579.858132373549,121.0 Z" fill="black" />
<path d="M475.0,246.0 L475.0,246.0 L475.0,254.0 L475.0,254.0 L585.0,254.0 L585.0,254.0 L585.0,246.0 L585.0,246.0 Z" fill="black" />
<rect x="584.95" y="121.0" width="25.1" height="8" fill="black" />
<rect x="584.95" y="246.0" width="25.1" height="8" fill="black" />
<rect x="584.95" y="371.0" width="25.1" height="8" fill="black" />
<rect x="584.95" y="496.0" width="25.1" height="8" fill="black" />
<rect x="609.95" y="246.0" width="50.1" height="8" fill="black" />
<rect x="609.95" y="371.0" width="50.1" height="8" fill="black" />
<rect x="660.0" y="225.0" width="50" height="175" fill="#3e368d" stroke="black" rx="5" ry="5" />
<text x="685.0" y="312.5" font-size="25" fill="white" text-anchor="middle" dominant-baseline="middle" transform="rotate(0, 685.0, 312.5)">BS</text>
<text x="685.0" y="425" font-size="18" fill="black" text-anchor="middle" dominant-baseline="middle" transform="rotate(0, 685.0, 425)">r = 0.5</text>
<rect x="709.95" y="246.0" width="50.1" height="8" fill="black" />
<rect x="709.95" y="371.0" width="50.1" height="8" fill="black" />
<rect x="609.95" y="121.0" width="150.1" height="8" fill="black" />
<rect x="759.95" y="121.0" width="50.1" height="8" fill="black" />
<rect x="759.95" y="246.0" width="50.1" height="8" fill="black" />
<rect x="810.0" y="100.0" width="50" height="175" fill="#3e368d" stroke="black" rx="5" ry="5" />
<text x="835.0" y="187.5" font-size="25" fill="white" text-anchor="middle" dominant-baseline="middle" transform="rotate(0, 835.0, 187.5)">BS</text>
<text x="835.0" y="300" font-size="18" fill="black" text-anchor="middle" dominant-baseline="middle" transform="rotate(0, 835.0, 300)">r = 0.7</text>
<rect x="859.95" y="121.0" width="50.1" height="8" fill="black" />
<rect x="859.95" y="246.0" width="50.1" height="8" fill="black" />
<rect x="609.95" y="496.0" width="150.1" height="8" fill="black" />
<rect x="759.95" y="371.0" width="50.1" height="8" fill="black" />
<rect x="759.95" y="496.0" width="50.1" height="8" fill="black" />
<rect x="810.0" y="350.0" width="50" height="175" fill="#3e368d" stroke="black" rx="5" ry="5" />
<text x="835.0" y="437.5" font-size="25" fill="white" text-anchor="middle" dominant-baseline="middle" transform="rotate(0, 835.0, 437.5)">BS</text>
<text x="835.0" y="550" font-size="18" fill="black" text-anchor="middle" dominant-baseline="middle" transform="rotate(0, 835.0, 550)">r = 0.7</text>
<rect x="859.95" y="371.0" width="50.1" height="8" fill="black" />
<rect x="859.95" y="496.0" width="50.1" height="8" fill="black" />
<rect x="909.95" y="371.0" width="50.1" height="8" fill="black" />
<rect x="909.95" y="496.0" width="50.1" height="8" fill="black" />
<rect x="960.0" y="350.0" width="50" height="175" fill="#3e368d" stroke="black" rx="5" ry="5" />
<text x="985.0" y="437.5" font-size="25" fill="white" text-anchor="middle" dominant-baseline="middle" transform="rotate(0, 985.0, 437.5)">BS</text>
<text x="985.0" y="550" font-size="18" fill="black" text-anchor="middle" dominant-baseline="middle" transform="rotate(0, 985.0, 550)">r = 0.5</text>
<rect x="1009.95" y="371.0" width="50.1" height="8" fill="black" />
<rect x="1009.95" y="496.0" width="50.1" height="8" fill="black" />
<rect x="1059.95" y="371.0" width="50.1" height="8" fill="black" />
<rect x="1110.0" y="350.0" width="50" height="50" fill="#e8532b" stroke="black" rx="5" ry="5" />
<text x="1135.0" y="377" font-size="25" fill="white" text-anchor="middle" dominant-baseline="middle" transform="rotate(0, 1135.0, 377)">PS</text>
<text x="1135.0" y="425" font-size="18" fill="black" text-anchor="middle" dominant-baseline="middle" transform="rotate(0, 1135.0, 425)">φ = 0.6</text>
<rect x="1159.95" y="371.0" width="50.1" height="8" fill="black" />
<rect x="1059.95" y="496.0" width="150.1" height="8" fill="black" />
<rect x="1209.95" y="371.0" width="50.1" height="8" fill="black" />
<rect x="1209.95" y="496.0" width="50.1" height="8" fill="black" />
<rect x="1260.0" y="350.0" width="50" height="175" fill="#3e368d" stroke="black" rx="5" ry="5" />
<text x="1285.0" y="437.5" font-size="25" fill="white" text-anchor="middle" dominant-baseline="middle" transform="rotate(0, 1285.0, 437.5)">BS</text>
<text x="1285.0" y="550" font-size="18" fill="black" text-anchor="middle" dominant-baseline="middle" transform="rotate(0, 1285.0, 550)">r = 0.5</text>
<rect x="1309.95" y="371.0" width="50.1" height="8" fill="black" />
<rect x="1309.95" y="496.0" width="50.1" height="8" fill="black" />
<rect x="909.95" y="246.0" width="450.1" height="8" fill="black" />
<rect x="1359.95" y="246.0" width="25.1" height="8" fill="black" />
<rect x="1359.95" y="371.0" width="25.1" height="8" fill="black" />
<rect x="1359.95" y="496.0" width="25.1" height="8" fill="black" />
<path d="M1388.7870930952727,246.0 L1385.0,246.0 L1385.0,254.0 L1385.0,254.0 L1471.2129069047273,379.0 L1475.0,379.0 L1475.0,371.0 L1475.0,371.0 Z" fill="black" />
<path d="M1388.7870930952727,371.0 L1385.0,371.0 L1385.0,379.0 L1385.0,379.0 L1471.2129069047273,504.0 L1475.0,504.0 L1475.0,496.0 L1475.0,496.0 Z" fill="black" />
<path d="M1385.0,496.0 L1385.0,496.0 L1385.0,504.0 L1389.9009629848526,504.0 L1475.0,254.0 L1475.0,254.0 L1475.0,246.0 L1470.0990370151474,246.0 Z" fill="black" />
<rect x="1474.95" y="246.0" width="25.1" height="8" fill="black" />
<rect x="1474.95" y="371.0" width="25.1" height="8" fill="black" />
<rect x="1474.95" y="496.0" width="25.1" height="8" fill="black" />
<rect x="909.95" y="121.0" width="590.1" height="8" fill="black" />
</svg>