<?xml version="1.0" encoding="UTF-8"?>
<svg xmlns="http://www.w3.org/2000/svg" xmlns:xlink="http://www.w3.org/1999/xlink"
     width="378.40000000000003" height="440.00000000000006" viewBox="0 0 752.5 875">
<defs>
</defs>
<rect x="0" y="0" width="752.5" height="875" fill="white" stroke="none" />
<rect x="152.5" y="25" width="500.0" height="825" fill="none" stroke="black" />
<rect x="144.5" y="124.5" width="8" height="1" fill="black" />
<rect x="144.5" y="249.5" width="8" height="1" fill="black" />
<rect x="144.5" y="374.5" width="8" height="1" fill="black" />
<rect x="144.5" y="499.5" width="8" height="1" fill="black" />
<rect x="144.5" y="624.5" width="8" height="1" fill="black" />
<rect x="144.5" y="749.5" width="8" height="1" fill="black" />
<text x="132.5" y="127" font-size="25" fill="black" text-anchor="end" dominant-baseline="middle" transform="rotate(0, 132.5, 127)">A : |0&gt;</text>
<text x="132.5" y="252" font-size="25" fill="black" text-anchor="end" dominant-baseline="middle" transform="rotate(0, 132.5, 252)">A : |1&gt;</text>
<text x="132.5" y="377" font-size="25" fill="black" text-anchor="end" dominant-baseline="middle" transform="rotate(0, 132.5, 377)">B : |0&gt;</text>
<text x="132.5" y="502" font-size="25" fill="black" text-anchor="end" dominant-baseline="middle" transform="rotate(0, 132.5, 502)">B : |1&gt;</text>
<text x="132.5" y="627" font-size="25" fill="black" text-anchor="end" dominant-baseline="middle" transform="rotate(0, 132.5, 627)">C : |0&gt;</text>
<text x="132.5" y="752" font-size="25" fill="black" text-anchor="end" dominant-baseline="middle" transform="rotate(0, 132.5, 752)">C : |1&gt;</text>
<rect x="202.45" y="121.0" width="50.1" height="8" fill="black" />
<rect x="202.45" y="246.0" width="50.1" height="8" fill="black" />
<rect x="252.5" y="100.0" width="100" height="175" fill="#1a0f36" stroke="black" rx="5" ry="5" />
<text x="302.5" y="187.5" font-size="35" fill="white" text-anchor="middle" dominant-baseline="middle" transform="rotate(0, 302.5, 187.5)">H</text>
<rect x="352.45" y="121.0" width="50.1" height="8" fill="black" />
<rect x="352.45" y="246.0" width="50.1" height="8" fill="black" />
<rect x="402.45" y="121.0" width="50.1" height="8" fill="black" />
<rect x="402.45" y="246.0" width="50.1" height="8" fill="black" />
<rect x="452.5" y="100.0" width="100" height="175" fill="#1a0f36" stroke="black" rx="5" ry="5" />
<text x="502.5" y="187.5" font-size="35" fill="white" text-anchor="middle" dominant-baseline="middle" transform="rotate(0, 502.5, 187.5)">X</text>
<rect x="552.45" y="121.0" width="50.1" height="8" fill="black" />
<rect x="552.45" y="246.0" width="50.1" height="8" fill="black" />
<rect x="202.45" y="371.0" width="50.1" height="8" fill="black" />
<rect x="202.45" y="496.0" width="50.1" height="8" fill="black" />
<rect x="252.5" y="350.0" width="100" height="175" fill="#1a0f36" stroke="black" rx="5" ry="5" />
<text x="302.5" y="437.5" font-size="35" fill="white" text-anchor="middle" dominant-baseline="middle" transform="rotate(0, 302.5, 437.5)">Y</text>
<rect x="352.45" y="371.0" width="50.1" height="8" fill="black" />
<rect x="352.45" y="496.0" width="50.1" height="8" fill="black" />
<rect x="402.45" y="371.0" width="50.1" height="8" fill="black" />
<rect x="402.45" y="496.0" width="50.1" height="8" fill="black" />
<rect x="452.5" y="350.0" width="100" height="175" fill="#1a0f36" stroke="black" rx="5" ry="5" />
<text x="502.5" y="437.5" font-size="35" fill="white" text-anchor="middle" dominant-baseline="middle" transform="rotate(0, 502.5, 437.5)">Z</text>
<rect x="552.45" y="371.0" width="50.1" height="8" fill="black" />
<rect x="552.45" y="496.0" width="50.1" height="8" fill="black" />
<rect x="202.45" y="621.0" width="50.1" height="8" fill="black" />
<rect x="202.45" y="746.0" width="50.1" height="8" fill="black" />
<rect x="252.5" y="600.0" width="100" height="175" fill="#1a0f36" stroke="black" rx="5" ry="5" />
<text x="302.5" y="687.5" font-size="35" fill="white" text-anchor="middle" dominant-baseline="middle" transform="rotate(0, 302.5, 687.5)">S</text>
<rect x="352.45" y="621.0" width="50.1" height="8" fill="black" />
<rect x="352.45" y="746.0" width="50.1" height="8" fill="black" />
<rect x="402.45" y="621.0" width="50.1" height="8" fill="black" />
<rect x="402.45" y="746.0" width="50.1" height="8" fill="black" />
<rect x="452.5" y="600.0" width="100" height="175" fill="#1a0f36" stroke="black" rx="5" ry="5" />
<text x="502.5" y="687.5" font-size="35" fill="white" text-anchor="middle" dominant-baseline="middle" transform="rotate(0, 502.5, 687.5)">T</text>
<rect x="552.45" y="621.0" width="50.1" height="8" fill="black" />
<rect x="552.45" y="746.0" width="50.1" height="8" fill="black" />
</svg>