<?xml version="1.0" encoding="UTF-8" standalone="no"?>
<svg
   width="477.7142857142857"
   height="440.00000000000006"
   viewBox="0 0 950 875"
   version="1.1"
   id="svg59"
   sodipodi:docname="unitary_demo2.svg"
   inkscape:version="1.3.2 (091e20e, 2023-11-25, custom)"
   xmlns:inkscape="http://www.inkscape.org/namespaces/inkscape"
   xmlns:sodipodi="http://sodipodi.sourceforge.net/DTD/sodipodi-0.dtd"
   xmlns="http://www.w3.org/2000/svg"
   xmlns:svg="http://www.w3.org/2000/svg">
  <sodipodi:namedview
     id="namedview59"
     pagecolor="#ffffff"
     bordercolor="#666666"
     borderopacity="1.0"
     inkscape:showpageshadow="2"
     inkscape:pageopacity="0.0"
     inkscape:pagecheckerboard="0"
     inkscape:deskcolor="#d1d1d1"
     inkscape:zoom="2.5886364"
     inkscape:cx="238.92888"
     inkscape:cy="220"
     inkscape:window-width="3072"
     inkscape:window-height="1622"
     inkscape:window-x="2696"
     inkscape:window-y="-11"
     inkscape:window-maximized="1"
     inkscape:current-layer="svg59" />
  <defs
     id="defs1" />
  <rect
     style="fill:#ffffff;stroke-width:5.1733;stroke-opacity:0.42"
     id="rect60"
     width="949.99945"
     height="875"
     x="0"
     y="0" />
  <rect
     x="100"
     y="25"
     width="750"
     height="825"
     fill="none"
     stroke="black"
     id="rect1" />
  <rect
     x="92"
     y="124.5"
     width="8"
     height="1"
     fill="black"
     id="rect2" />
  <rect
     x="92"
     y="249.5"
     width="8"
     height="1"
     fill="black"
     id="rect3" />
  <rect
     x="92"
     y="374.5"
     width="8"
     height="1"
     fill="black"
     id="rect4" />
  <rect
     x="92"
     y="499.5"
     width="8"
     height="1"
     fill="black"
     id="rect5" />
  <rect
     x="92"
     y="624.5"
     width="8"
     height="1"
     fill="black"
     id="rect6" />
  <rect
     x="92"
     y="749.5"
     width="8"
     height="1"
     fill="black"
     id="rect7" />
  <text
     x="80"
     y="127"
     font-size="25"
     fill="black"
     text-anchor="end"
     dominant-baseline="middle"
     transform="rotate(0, 80, 127)"
     id="text7">0</text>
  <text
     x="80"
     y="252"
     font-size="25"
     fill="black"
     text-anchor="end"
     dominant-baseline="middle"
     transform="rotate(0, 80, 252)"
     id="text8">1</text>
  <text
     x="80"
     y="377"
     font-size="25"
     fill="black"
     text-anchor="end"
     dominant-baseline="middle"
     transform="rotate(0, 80, 377)"
     id="text9">2</text>
  <text
     x="80"
     y="502"
     font-size="25"
     fill="black"
     text-anchor="end"
     dominant-baseline="middle"
     transform="rotate(0, 80, 502)"
     id="text10">3</text>
  <text
     x="80"
     y="627"
     font-size="25"
     fill="black"
     text-anchor="end"
     dominant-baseline="middle"
     transform="rotate(0, 80, 627)"
     id="text11">4</text>
  <text
     x="80"
     y="752"
     font-size="25"
     fill="black"
     text-anchor="end"
     dominant-baseline="middle"
     transform="rotate(0, 80, 752)"
     id="text12">5</text>
  <rect
     x="149.95"
     y="121.0"
     width="50.1"
     height="8"
     fill="black"
     id="rect12" />
  <rect
     x="149.95"
     y="246.0"
     width="50.1"
     height="8"
     fill="black"
     id="rect13" />
  <rect
     x="200"
     y="100.0"
     width="50"
     height="175"
     fill="#3e368d"
     stroke="black"
     rx="5"
     ry="5"
     id="rect14" />
  <text
     x="225.0"
     y="187.5"
     font-size="25"
     fill="white"
     text-anchor="middle"
     dominant-baseline="middle"
     transform="rotate(0, 225.0, 187.5)"
     id="text14">BS</text>
  <text
     x="225.0"
     y="300"
     font-size="18"
     fill="black"
     text-anchor="middle"
     dominant-baseline="middle"
     transform="rotate(0, 225.0, 300)"
     id="text15">r = 0.4</text>
  <rect
     x="249.95"
     y="121.0"
     width="50.1"
     height="8"
     fill="black"
     id="rect15" />
  <rect
     x="249.95"
     y="246.0"
     width="50.1"
     height="8"
     fill="black"
     id="rect16" />
  <rect
     x="299.95"
     y="121.0"
     width="50.1"
     height="8"
     fill="black"
     id="rect17" />
  <rect
     x="350"
     y="100.0"
     width="50"
     height="50"
     fill="#e8532b"
     stroke="black"
     rx="5"
     ry="5"
     id="rect18" />
  <text
     x="375.0"
     y="127"
     font-size="25"
     fill="white"
     text-anchor="middle"
     dominant-baseline="middle"
     transform="rotate(0, 375.0, 127)"
     id="text18">PS</text>
  <text
     x="375.0"
     y="175"
     font-size="18"
     fill="black"
     text-anchor="middle"
     dominant-baseline="middle"
     transform="rotate(0, 375.0, 175)"
     id="text19">φ = 1</text>
  <rect
     x="399.95"
     y="121.0"
     width="50.1"
     height="8"
     fill="black"
     id="rect19" />
  <rect
     x="149.95"
     y="496.0"
     width="50.1"
     height="8"
     fill="black"
     id="rect20" />
  <rect
     x="149.95"
     y="621.0"
     width="50.1"
     height="8"
     fill="black"
     id="rect21" />
  <rect
     x="200"
     y="475.0"
     width="50"
     height="175"
     fill="#3e368d"
     stroke="black"
     rx="5"
     ry="5"
     id="rect22" />
  <text
     x="225.0"
     y="562.5"
     font-size="25"
     fill="white"
     text-anchor="middle"
     dominant-baseline="middle"
     transform="rotate(0, 225.0, 562.5)"
     id="text22">BS</text>
  <text
     x="225.0"
     y="675"
     font-size="18"
     fill="black"
     text-anchor="middle"
     dominant-baseline="middle"
     transform="rotate(0, 225.0, 675)"
     id="text23">r = 0.4</text>
  <rect
     x="249.95"
     y="496.0"
     width="50.1"
     height="8"
     fill="black"
     id="rect23" />
  <rect
     x="249.95"
     y="621.0"
     width="50.1"
     height="8"
     fill="black"
     id="rect24" />
  <rect
     x="299.95"
     y="496.0"
     width="50.1"
     height="8"
     fill="black"
     id="rect25" />
  <rect
     x="350"
     y="475.0"
     width="50"
     height="50"
     fill="#e8532b"
     stroke="black"
     rx="5"
     ry="5"
     id="rect26" />
  <text
     x="375.0"
     y="502"
     font-size="25"
     fill="white"
     text-anchor="middle"
     dominant-baseline="middle"
     transform="rotate(0, 375.0, 502)"
     id="text26">PS</text>
  <text
     x="375.0"
     y="550"
     font-size="18"
     fill="black"
     text-anchor="middle"
     dominant-baseline="middle"
     transform="rotate(0, 375.0, 550)"
     id="text27">φ = 1</text>
  <rect
     x="399.95"
     y="496.0"
     width="50.1"
     height="8"
     fill="black"
     id="rect27" />
  <rect
     x="149.95"
     y="371.0"
     width="150.1"
     height="8"
     fill="black"
     id="rect28" />
  <rect
     x="299.95"
     y="246.0"
     width="50.1"
     height="8"
     fill="black"
     id="rect29" />
  <rect
     x="299.95"
     y="371.0"
     width="50.1"
     height="8"
     fill="black"
     id="rect30" />
  <rect
     x="350"
     y="225.0"
     width="50"
     height="175"
     fill="#3e368d"
     stroke="black"
     rx="5"
     ry="5"
     id="rect31" />
  <text
     x="375.0"
     y="312.5"
     font-size="25"
     fill="white"
     text-anchor="middle"
     dominant-baseline="middle"
     transform="rotate(0, 375.0, 312.5)"
     id="text31">BS</text>
  <text
     x="375.0"
     y="425"
     font-size="18"
     fill="black"
     text-anchor="middle"
     dominant-baseline="middle"
     transform="rotate(0, 375.0, 425)"
     id="text32">r = 0.4</text>
  <rect
     x="399.95"
     y="246.0"
     width="50.1"
     height="8"
     fill="black"
     id="rect32" />
  <rect
     x="399.95"
     y="371.0"
     width="50.1"
     height="8"
     fill="black"
     id="rect33" />
  <rect
     x="449.95"
     y="246.0"
     width="50.1"
     height="8"
     fill="black"
     id="rect34" />
  <rect
     x="500"
     y="225.0"
     width="50"
     height="50"
     fill="#e8532b"
     stroke="black"
     rx="5"
     ry="5"
     id="rect35" />
  <text
     x="525.0"
     y="252"
     font-size="25"
     fill="white"
     text-anchor="middle"
     dominant-baseline="middle"
     transform="rotate(0, 525.0, 252)"
     id="text35">PS</text>
  <text
     x="525.0"
     y="300"
     font-size="18"
     fill="black"
     text-anchor="middle"
     dominant-baseline="middle"
     transform="rotate(0, 525.0, 300)"
     id="text36">φ = 1</text>
  <rect
     x="549.95"
     y="246.0"
     width="50.1"
     height="8"
     fill="black"
     id="rect36" />
  <rect
     x="149.95"
     y="746.0"
     width="150.1"
     height="8"
     fill="black"
     id="rect37" />
  <rect
     x="299.95"
     y="621.0"
     width="50.1"
     height="8"
     fill="black"
     id="rect38" />
  <rect
     x="299.95"
     y="746.0"
     width="50.1"
     height="8"
     fill="black"
     id="rect39" />
  <rect
     x="350"
     y="600.0"
     width="50"
     height="175"
     fill="#3e368d"
     stroke="black"
     rx="5"
     ry="5"
     id="rect40" />
  <text
     x="375.0"
     y="687.5"
     font-size="25"
     fill="white"
     text-anchor="middle"
     dominant-baseline="middle"
     transform="rotate(0, 375.0, 687.5)"
     id="text40">BS</text>
  <text
     x="375.0"
     y="800"
     font-size="18"
     fill="black"
     text-anchor="middle"
     dominant-baseline="middle"
     transform="rotate(0, 375.0, 800)"
     id="text41">r = 0.4</text>
  <rect
     x="399.95"
     y="621.0"
     width="50.1"
     height="8"
     fill="black"
     id="rect41" />
  <rect
     x="399.95"
     y="746.0"
     width="50.1"
     height="8"
     fill="black"
     id="rect42" />
  <rect
     x="449.95"
     y="621.0"
     width="50.1"
     height="8"
     fill="black"
     id="rect43" />
  <rect
     x="500"
     y="600.0"
     width="50"
     height="50"
     fill="#e8532b"
     stroke="black"
     rx="5"
     ry="5"
     id="rect44" />
  <text
     x="525.0"
     y="627"
     font-size="25"
     fill="white"
     text-anchor="middle"
     dominant-baseline="middle"
     transform="rotate(0, 525.0, 627)"
     id="text44">PS</text>
  <text
     x="525.0"
     y="675"
     font-size="18"
     fill="black"
     text-anchor="middle"
     dominant-baseline="middle"
     transform="rotate(0, 525.0, 675)"
     id="text45">φ = 1</text>
  <rect
     x="549.95"
     y="621.0"
     width="50.1"
     height="8"
     fill="black"
     id="rect45" />
  <rect
     x="449.95"
     y="371.0"
     width="150.1"
     height="8"
     fill="black"
     id="rect46" />
  <rect
     x="449.95"
     y="496.0"
     width="150.1"
     height="8"
     fill="black"
     id="rect47" />
  <rect
     x="449.95"
     y="746.0"
     width="150.1"
     height="8"
     fill="black"
     id="rect48" />
  <rect
     x="599.95"
     y="371.0"
     width="50.1"
     height="8"
     fill="black"
     id="rect49" />
  <rect
     x="599.95"
     y="496.0"
     width="50.1"
     height="8"
     fill="black"
     id="rect50" />
  <rect
     x="599.95"
     y="621.0"
     width="50.1"
     height="8"
     fill="black"
     id="rect51" />
  <rect
     x="599.95"
     y="746.0"
     width="50.1"
     height="8"
     fill="black"
     id="rect52" />
  <rect
     x="650"
     y="350.0"
     width="100"
     height="425"
     fill="#1a0f36"
     stroke="black"
     rx="5"
     ry="5"
     id="rect53" />
  <text
     x="700.0"
     y="562.5"
     font-size="35"
     fill="white"
     text-anchor="middle"
     dominant-baseline="middle"
     transform="rotate(0, 700.0, 562.5)"
     id="text53">U</text>
  <rect
     x="749.95"
     y="371.0"
     width="50.1"
     height="8"
     fill="black"
     id="rect54" />
  <rect
     x="749.95"
     y="496.0"
     width="50.1"
     height="8"
     fill="black"
     id="rect55" />
  <rect
     x="749.95"
     y="621.0"
     width="50.1"
     height="8"
     fill="black"
     id="rect56" />
  <rect
     x="749.95"
     y="746.0"
     width="50.1"
     height="8"
     fill="black"
     id="rect57" />
  <rect
     x="449.95"
     y="121.0"
     width="350.1"
     height="8"
     fill="black"
     id="rect58" />
  <rect
     x="599.95"
     y="246.0"
     width="200.1"
     height="8"
     fill="black"
     id="rect59" />
</svg>
