<?xml version="1.0" encoding="UTF-8" standalone="no"?>
<svg
   width="322.4"
   height="310.0"
   viewBox="0 0 650 625"
   version="1.1"
   id="svg23"
   sodipodi:docname="unitary_demo.svg"
   inkscape:version="1.3.2 (091e20e, 2023-11-25, custom)"
   xmlns:inkscape="http://www.inkscape.org/namespaces/inkscape"
   xmlns:sodipodi="http://sodipodi.sourceforge.net/DTD/sodipodi-0.dtd"
   xmlns="http://www.w3.org/2000/svg"
   xmlns:svg="http://www.w3.org/2000/svg">
  <sodipodi:namedview
     id="namedview23"
     pagecolor="#ffffff"
     bordercolor="#666666"
     borderopacity="1.0"
     inkscape:showpageshadow="2"
     inkscape:pageopacity="0.0"
     inkscape:pagecheckerboard="0"
     inkscape:deskcolor="#d1d1d1"
     inkscape:zoom="3.6741935"
     inkscape:cx="161.25988"
     inkscape:cy="155"
     inkscape:window-width="3072"
     inkscape:window-height="1622"
     inkscape:window-x="2696"
     inkscape:window-y="-11"
     inkscape:window-maximized="1"
     inkscape:current-layer="svg23" />
  <defs
     id="defs1" />
  <rect
     style="fill:#ffffff;stroke-width:6.74386;stroke-opacity:0.42"
     id="rect24"
     width="650"
     height="625"
     x="0"
     y="0" />
  <rect
     x="100"
     y="25"
     width="450"
     height="575"
     fill="none"
     stroke="black"
     id="rect1" />
  <rect
     x="92"
     y="124.5"
     width="8"
     height="1"
     fill="black"
     id="rect2" />
  <rect
     x="92"
     y="249.5"
     width="8"
     height="1"
     fill="black"
     id="rect3" />
  <rect
     x="92"
     y="374.5"
     width="8"
     height="1"
     fill="black"
     id="rect4" />
  <rect
     x="92"
     y="499.5"
     width="8"
     height="1"
     fill="black"
     id="rect5" />
  <text
     x="80"
     y="127"
     font-size="25"
     fill="black"
     text-anchor="end"
     dominant-baseline="middle"
     transform="rotate(0, 80, 127)"
     id="text5">0</text>
  <text
     x="80"
     y="252"
     font-size="25"
     fill="black"
     text-anchor="end"
     dominant-baseline="middle"
     transform="rotate(0, 80, 252)"
     id="text6">1</text>
  <text
     x="80"
     y="377"
     font-size="25"
     fill="black"
     text-anchor="end"
     dominant-baseline="middle"
     transform="rotate(0, 80, 377)"
     id="text7">2</text>
  <text
     x="80"
     y="502"
     font-size="25"
     fill="black"
     text-anchor="end"
     dominant-baseline="middle"
     transform="rotate(0, 80, 502)"
     id="text8">3</text>
  <rect
     x="149.95"
     y="121.0"
     width="50.1"
     height="8"
     fill="black"
     id="rect8" />
  <rect
     x="149.95"
     y="246.0"
     width="50.1"
     height="8"
     fill="black"
     id="rect9" />
  <rect
     x="149.95"
     y="371.0"
     width="50.1"
     height="8"
     fill="black"
     id="rect10" />
  <rect
     x="149.95"
     y="496.0"
     width="50.1"
     height="8"
     fill="black"
     id="rect11" />
  <rect
     x="200"
     y="100.0"
     width="100"
     height="425"
     fill="#1a0f36"
     stroke="black"
     rx="5"
     ry="5"
     id="rect12" />
  <text
     x="250.0"
     y="312.5"
     font-size="35"
     fill="white"
     text-anchor="middle"
     dominant-baseline="middle"
     transform="rotate(0, 250.0, 312.5)"
     id="text12">U</text>
  <rect
     x="299.95"
     y="121.0"
     width="50.1"
     height="8"
     fill="black"
     id="rect13" />
  <rect
     x="299.95"
     y="246.0"
     width="50.1"
     height="8"
     fill="black"
     id="rect14" />
  <rect
     x="299.95"
     y="371.0"
     width="50.1"
     height="8"
     fill="black"
     id="rect15" />
  <rect
     x="299.95"
     y="496.0"
     width="50.1"
     height="8"
     fill="black"
     id="rect16" />
  <rect
     x="349.95"
     y="246.0"
     width="50.1"
     height="8"
     fill="black"
     id="rect17" />
  <rect
     x="349.95"
     y="371.0"
     width="50.1"
     height="8"
     fill="black"
     id="rect18" />
  <rect
     x="400"
     y="225.0"
     width="50"
     height="175"
     fill="#3e368d"
     stroke="black"
     rx="5"
     ry="5"
     id="rect19" />
  <text
     x="425.0"
     y="312.5"
     font-size="25"
     fill="white"
     text-anchor="middle"
     dominant-baseline="middle"
     transform="rotate(0, 425.0, 312.5)"
     id="text19">BS</text>
  <text
     x="425.0"
     y="425"
     font-size="18"
     fill="black"
     text-anchor="middle"
     dominant-baseline="middle"
     transform="rotate(0, 425.0, 425)"
     id="text20">r = 0.5</text>
  <rect
     x="449.95"
     y="246.0"
     width="50.1"
     height="8"
     fill="black"
     id="rect20" />
  <rect
     x="449.95"
     y="371.0"
     width="50.1"
     height="8"
     fill="black"
     id="rect21" />
  <rect
     x="349.95"
     y="121.0"
     width="150.1"
     height="8"
     fill="black"
     id="rect22" />
  <rect
     x="349.95"
     y="496.0"
     width="150.1"
     height="8"
     fill="black"
     id="rect23" />
</svg>
