<svg id="Layer_1" data-name="Layer 1" xmlns="http://www.w3.org/2000/svg" viewBox="0 0 1000 1000"><defs><style>.cls-1{fill:#3e368b;}</style></defs><path class="cls-1" d="M228,619h38.18V767H228V749.56c-11.55,14.5-27.53,21.61-48.25,21.61-19.83,0-36.7-7.4-50.91-22.5-13.91-15.09-21-33.74-21-55.65s7.1-40.25,21-55.35c14.21-15.09,31.08-22.79,50.91-22.79,20.72,0,36.7,7.11,48.25,21.61ZM186.84,734.76q17.76,0,29.3-11.54c8-8,11.84-18.06,11.84-30.2s-3.85-22.19-11.84-29.89c-7.7-8-17.46-11.84-29.3-11.84s-21.61,3.85-29.31,11.84C149.84,670.83,146,680.89,146,693s3.85,22.2,11.54,30.2Q169.08,734.75,186.84,734.76Zm149.18-26c5,18.65,18.94,27.83,41.73,27.83,14.51,0,25.76-5,33.16-14.8l30.78,17.76c-14.51,21-36.11,31.67-64.53,31.67-24.56,0-44.1-7.4-58.9-22.2s-22.2-33.45-22.2-56c0-22.19,7.4-40.84,21.9-55.64,14.51-15.1,33.45-22.5,56.24-22.5,21.61,0,39.67,7.4,53.58,22.5,14.2,15.09,21.31,33.45,21.31,55.64a99.61,99.61,0,0,1-1.48,15.69Zm74.89-29.6c-4.44-20.13-19.24-29.89-36.71-29.89-20.42,0-34.33,10.95-38.77,29.89Zm180-60.08h37.3V759.92c0,22.79-7.7,40.25-22.79,52.39s-33.16,18.06-54.47,18.06c-32,0-57.12-12.44-70.15-36.12l32.56-18.64c7.4,13.91,20.42,20.72,38.78,20.72,24,0,38.77-13,38.77-36.41v-16c-11.25,15.09-26.93,22.49-47.36,22.49-21,0-38.48-7.4-52.68-21.9-13.92-14.8-21-32.86-21-53.87s7.1-38.78,21.31-53.58,31.67-22.2,52.39-22.2c20.43,0,36.11,7.4,47.36,22.5ZM579,661.94c-7.69-7.69-17.46-11.54-29.6-11.54s-21.9,3.85-29.89,11.54c-7.7,7.4-11.55,17.17-11.55,28.72,0,23.68,17.47,40.55,41.44,40.55s41.44-16.87,41.44-40.55C590.87,679.11,587,669.34,579,661.94Zm82.29-84.06c0-12.73,10.66-23.68,23.38-23.68a23.94,23.94,0,0,1,23.68,23.68,23.53,23.53,0,0,1-47.06,0ZM665.76,767V619h38.18V767ZM854,619h38.18V826.22H854V749.56c-11.25,14.5-27.23,21.61-48,21.61-19.83,0-37-7.4-51.21-22.5-13.91-15.09-21-33.74-21-55.65s7.1-40.25,21-55.35c14.21-15.09,31.38-22.79,51.21-22.79,20.72,0,36.7,7.11,48,21.61ZM813.16,734.76q17.76,0,29.31-11.54Q854,711.22,854,693c0-12.13-3.85-22.19-11.54-29.89-7.7-8-17.47-11.84-29.31-11.84s-21.6,3.85-29.59,11.84C775.87,670.83,772,680.89,772,693s3.85,22.2,11.55,30.2C791.56,730.91,801.32,734.76,813.16,734.76Z"/><path class="cls-1" d="M512.89,274.77c-21.73-13.3-47.95-26.74-84.8-33.4,18.23-5.88,32.56-15.07,49.57-26,31.68-20.37,71.11-45.73,144.78-45.73h20.88v66.13H622.44c-48.77,0-70.3,13.84-100.1,33C519.28,270.72,516.12,272.74,512.89,274.77ZM356.68,405.64v66.13h20.88c73.67,0,113.09-25.35,144.78-45.73,29.8-19.16,51.33-33,100.1-33h20.88V326.92H622.44c-73.67,0-113.1,25.35-144.78,45.72-29.8,19.16-51.33,33-100.1,33Zm121-58.15c3,1.94,6.13,3.92,9.3,5.92,21.69-13.28,47.84-26.73,84.57-33.42-18-5.89-32.29-15-49.19-25.9-31.68-20.37-71.11-45.72-144.78-45.72H356.68v66.12h20.88C426.33,314.49,447.86,328.33,477.66,347.49Z"/></svg>