<?xml version="1.0" encoding="UTF-8"?>
<svg xmlns="http://www.w3.org/2000/svg" xmlns:xlink="http://www.w3.org/1999/xlink"
     width="1030.857142857143" height="440.00000000000006" viewBox="0 0 2050 875">
<defs>
</defs>
<rect x="100" y="25" width="1850" height="825" fill="none" stroke="black" />
<rect x="92" y="124.5" width="8" height="1" fill="black" />
<rect x="92" y="249.5" width="8" height="1" fill="black" />
<rect x="92" y="374.5" width="8" height="1" fill="black" />
<rect x="92" y="499.5" width="8" height="1" fill="black" />
<rect x="92" y="624.5" width="8" height="1" fill="black" />
<rect x="92" y="749.5" width="8" height="1" fill="black" />
<text x="80" y="127" font-size="25" fill="black" text-anchor="end" dominant-baseline="middle" transform="rotate(0, 80, 127)">a0</text>
<text x="80" y="252" font-size="25" fill="black" text-anchor="end" dominant-baseline="middle" transform="rotate(0, 80, 252)">c0</text>
<text x="80" y="377" font-size="25" fill="black" text-anchor="end" dominant-baseline="middle" transform="rotate(0, 80, 377)">c1</text>
<text x="80" y="502" font-size="25" fill="black" text-anchor="end" dominant-baseline="middle" transform="rotate(0, 80, 502)">t0</text>
<text x="80" y="627" font-size="25" fill="black" text-anchor="end" dominant-baseline="middle" transform="rotate(0, 80, 627)">t1</text>
<text x="80" y="752" font-size="25" fill="black" text-anchor="end" dominant-baseline="middle" transform="rotate(0, 80, 752)">a1</text>
<rect x="149.95" y="121.0" width="50.1" height="8" fill="black" />
<rect x="149.95" y="246.0" width="50.1" height="8" fill="black" />
<rect x="149.95" y="371.0" width="50.1" height="8" fill="black" />
<rect x="149.95" y="496.0" width="50.1" height="8" fill="black" />
<rect x="149.95" y="621.0" width="50.1" height="8" fill="black" />
<rect x="149.95" y="746.0" width="50.1" height="8" fill="black" />
<rect x="199.95" y="496.0" width="50.1" height="8" fill="black" />
<rect x="199.95" y="621.0" width="50.1" height="8" fill="black" />
<rect x="250" y="475.0" width="50" height="175" fill="#3e368d" stroke="black" rx="5" ry="5" />
<text x="275.0" y="562.5" font-size="25" fill="white" text-anchor="middle" dominant-baseline="middle" transform="rotate(0, 275.0, 562.5)">BS</text>
<text x="275.0" y="675" font-size="18" fill="black" text-anchor="middle" dominant-baseline="middle" transform="rotate(0, 275.0, 675)">r = 0.5</text>
<rect x="299.95" y="496.0" width="50.1" height="8" fill="black" />
<rect x="299.95" y="621.0" width="50.1" height="8" fill="black" />
<rect x="349.95" y="621.0" width="50.1" height="8" fill="black" />
<rect x="400" y="600.0" width="50" height="50" fill="#e8532b" stroke="black" rx="5" ry="5" />
<text x="425.0" y="627" font-size="25" fill="white" text-anchor="middle" dominant-baseline="middle" transform="rotate(0, 425.0, 627)">PS</text>
<text x="425.0" y="675" font-size="18" fill="black" text-anchor="middle" dominant-baseline="middle" transform="rotate(0, 425.0, 675)">φ = π/2</text>
<rect x="449.95" y="621.0" width="50.1" height="8" fill="black" />
<rect x="349.95" y="496.0" width="150.1" height="8" fill="black" />
<rect x="499.95" y="496.0" width="50.1" height="8" fill="black" />
<rect x="499.95" y="621.0" width="50.1" height="8" fill="black" />
<rect x="550" y="475.0" width="50" height="175" fill="#3e368d" stroke="black" rx="5" ry="5" />
<text x="575.0" y="562.5" font-size="25" fill="white" text-anchor="middle" dominant-baseline="middle" transform="rotate(0, 575.0, 562.5)">BS</text>
<text x="575.0" y="675" font-size="18" fill="black" text-anchor="middle" dominant-baseline="middle" transform="rotate(0, 575.0, 675)">r = 0.5</text>
<rect x="599.95" y="496.0" width="50.1" height="8" fill="black" />
<rect x="599.95" y="621.0" width="50.1" height="8" fill="black" />
<rect x="649.95" y="621.0" width="50.1" height="8" fill="black" />
<rect x="700" y="600.0" width="50" height="50" fill="#e8532b" stroke="black" rx="5" ry="5" />
<text x="725.0" y="627" font-size="25" fill="white" text-anchor="middle" dominant-baseline="middle" transform="rotate(0, 725.0, 627)">PS</text>
<text x="725.0" y="675" font-size="18" fill="black" text-anchor="middle" dominant-baseline="middle" transform="rotate(0, 725.0, 675)">φ = 0</text>
<rect x="749.95" y="621.0" width="50.1" height="8" fill="black" />
<rect x="199.95" y="121.0" width="50.1" height="8" fill="black" />
<rect x="199.95" y="246.0" width="50.1" height="8" fill="black" />
<rect x="250" y="100.0" width="50" height="175" fill="#3e368d" stroke="black" rx="5" ry="5" />
<text x="275.0" y="187.5" font-size="25" fill="white" text-anchor="middle" dominant-baseline="middle" transform="rotate(0, 275.0, 187.5)">BS</text>
<text x="275.0" y="300" font-size="18" fill="black" text-anchor="middle" dominant-baseline="middle" transform="rotate(0, 275.0, 300)">r = 0.5</text>
<rect x="299.95" y="121.0" width="50.1" height="8" fill="black" />
<rect x="299.95" y="246.0" width="50.1" height="8" fill="black" />
<rect x="349.95" y="246.0" width="50.1" height="8" fill="black" />
<rect x="400" y="225.0" width="50" height="50" fill="#e8532b" stroke="black" rx="5" ry="5" />
<text x="425.0" y="252" font-size="25" fill="white" text-anchor="middle" dominant-baseline="middle" transform="rotate(0, 425.0, 252)">PS</text>
<text x="425.0" y="300" font-size="18" fill="black" text-anchor="middle" dominant-baseline="middle" transform="rotate(0, 425.0, 300)">φ = 1.231</text>
<rect x="449.95" y="246.0" width="50.1" height="8" fill="black" />
<rect x="349.95" y="121.0" width="150.1" height="8" fill="black" />
<rect x="499.95" y="121.0" width="50.1" height="8" fill="black" />
<rect x="499.95" y="246.0" width="50.1" height="8" fill="black" />
<rect x="550" y="100.0" width="50" height="175" fill="#3e368d" stroke="black" rx="5" ry="5" />
<text x="575.0" y="187.5" font-size="25" fill="white" text-anchor="middle" dominant-baseline="middle" transform="rotate(0, 575.0, 187.5)">BS</text>
<text x="575.0" y="300" font-size="18" fill="black" text-anchor="middle" dominant-baseline="middle" transform="rotate(0, 575.0, 300)">r = 0.5</text>
<rect x="599.95" y="121.0" width="50.1" height="8" fill="black" />
<rect x="599.95" y="246.0" width="50.1" height="8" fill="black" />
<rect x="649.95" y="246.0" width="50.1" height="8" fill="black" />
<rect x="700" y="225.0" width="50" height="50" fill="#e8532b" stroke="black" rx="5" ry="5" />
<text x="725.0" y="252" font-size="25" fill="white" text-anchor="middle" dominant-baseline="middle" transform="rotate(0, 725.0, 252)">PS</text>
<text x="725.0" y="300" font-size="18" fill="black" text-anchor="middle" dominant-baseline="middle" transform="rotate(0, 725.0, 300)">φ = 0</text>
<rect x="749.95" y="246.0" width="50.1" height="8" fill="black" />
<rect x="199.95" y="371.0" width="450.1" height="8" fill="black" />
<rect x="649.95" y="371.0" width="50.1" height="8" fill="black" />
<rect x="649.95" y="496.0" width="50.1" height="8" fill="black" />
<rect x="700" y="350.0" width="50" height="175" fill="#3e368d" stroke="black" rx="5" ry="5" />
<text x="725.0" y="437.5" font-size="25" fill="white" text-anchor="middle" dominant-baseline="middle" transform="rotate(0, 725.0, 437.5)">BS</text>
<text x="725.0" y="550" font-size="18" fill="black" text-anchor="middle" dominant-baseline="middle" transform="rotate(0, 725.0, 550)">r = 0.5</text>
<rect x="749.95" y="371.0" width="50.1" height="8" fill="black" />
<rect x="749.95" y="496.0" width="50.1" height="8" fill="black" />
<rect x="799.95" y="496.0" width="50.1" height="8" fill="black" />
<rect x="850" y="475.0" width="50" height="50" fill="#e8532b" stroke="black" rx="5" ry="5" />
<text x="875.0" y="502" font-size="25" fill="white" text-anchor="middle" dominant-baseline="middle" transform="rotate(0, 875.0, 502)">PS</text>
<text x="875.0" y="550" font-size="18" fill="black" text-anchor="middle" dominant-baseline="middle" transform="rotate(0, 875.0, 550)">φ = 1.231</text>
<rect x="899.95" y="496.0" width="50.1" height="8" fill="black" />
<rect x="799.95" y="371.0" width="150.1" height="8" fill="black" />
<rect x="949.95" y="371.0" width="50.1" height="8" fill="black" />
<rect x="949.95" y="496.0" width="50.1" height="8" fill="black" />
<rect x="1000" y="350.0" width="50" height="175" fill="#3e368d" stroke="black" rx="5" ry="5" />
<text x="1025.0" y="437.5" font-size="25" fill="white" text-anchor="middle" dominant-baseline="middle" transform="rotate(0, 1025.0, 437.5)">BS</text>
<text x="1025.0" y="550" font-size="18" fill="black" text-anchor="middle" dominant-baseline="middle" transform="rotate(0, 1025.0, 550)">r = 0.5</text>
<rect x="1049.95" y="371.0" width="50.1" height="8" fill="black" />
<rect x="1049.95" y="496.0" width="50.1" height="8" fill="black" />
<rect x="1099.95" y="496.0" width="50.1" height="8" fill="black" />
<rect x="1150" y="475.0" width="50" height="50" fill="#e8532b" stroke="black" rx="5" ry="5" />
<text x="1175.0" y="502" font-size="25" fill="white" text-anchor="middle" dominant-baseline="middle" transform="rotate(0, 1175.0, 502)">PS</text>
<text x="1175.0" y="550" font-size="18" fill="black" text-anchor="middle" dominant-baseline="middle" transform="rotate(0, 1175.0, 550)">φ = π</text>
<rect x="1199.95" y="496.0" width="50.1" height="8" fill="black" />
<rect x="199.95" y="746.0" width="600.1" height="8" fill="black" />
<rect x="799.95" y="621.0" width="50.1" height="8" fill="black" />
<rect x="799.95" y="746.0" width="50.1" height="8" fill="black" />
<rect x="850" y="600.0" width="50" height="175" fill="#3e368d" stroke="black" rx="5" ry="5" />
<text x="875.0" y="687.5" font-size="25" fill="white" text-anchor="middle" dominant-baseline="middle" transform="rotate(0, 875.0, 687.5)">BS</text>
<text x="875.0" y="800" font-size="18" fill="black" text-anchor="middle" dominant-baseline="middle" transform="rotate(0, 875.0, 800)">r = 0.5</text>
<rect x="899.95" y="621.0" width="50.1" height="8" fill="black" />
<rect x="899.95" y="746.0" width="50.1" height="8" fill="black" />
<rect x="949.95" y="746.0" width="50.1" height="8" fill="black" />
<rect x="1000" y="725.0" width="50" height="50" fill="#e8532b" stroke="black" rx="5" ry="5" />
<text x="1025.0" y="752" font-size="25" fill="white" text-anchor="middle" dominant-baseline="middle" transform="rotate(0, 1025.0, 752)">PS</text>
<text x="1025.0" y="800" font-size="18" fill="black" text-anchor="middle" dominant-baseline="middle" transform="rotate(0, 1025.0, 800)">φ = 1.231</text>
<rect x="1049.95" y="746.0" width="50.1" height="8" fill="black" />
<rect x="949.95" y="621.0" width="150.1" height="8" fill="black" />
<rect x="1099.95" y="621.0" width="50.1" height="8" fill="black" />
<rect x="1099.95" y="746.0" width="50.1" height="8" fill="black" />
<rect x="1150" y="600.0" width="50" height="175" fill="#3e368d" stroke="black" rx="5" ry="5" />
<text x="1175.0" y="687.5" font-size="25" fill="white" text-anchor="middle" dominant-baseline="middle" transform="rotate(0, 1175.0, 687.5)">BS</text>
<text x="1175.0" y="800" font-size="18" fill="black" text-anchor="middle" dominant-baseline="middle" transform="rotate(0, 1175.0, 800)">r = 0.5</text>
<rect x="1199.95" y="621.0" width="50.1" height="8" fill="black" />
<rect x="1199.95" y="746.0" width="50.1" height="8" fill="black" />
<rect x="1249.95" y="746.0" width="50.1" height="8" fill="black" />
<rect x="1300" y="725.0" width="50" height="50" fill="#e8532b" stroke="black" rx="5" ry="5" />
<text x="1325.0" y="752" font-size="25" fill="white" text-anchor="middle" dominant-baseline="middle" transform="rotate(0, 1325.0, 752)">PS</text>
<text x="1325.0" y="800" font-size="18" fill="black" text-anchor="middle" dominant-baseline="middle" transform="rotate(0, 1325.0, 800)">φ = 0</text>
<rect x="1349.95" y="746.0" width="50.1" height="8" fill="black" />
<rect x="1249.95" y="496.0" width="50.1" height="8" fill="black" />
<rect x="1249.95" y="621.0" width="50.1" height="8" fill="black" />
<rect x="1300" y="475.0" width="50" height="175" fill="#3e368d" stroke="black" rx="5" ry="5" />
<text x="1325.0" y="562.5" font-size="25" fill="white" text-anchor="middle" dominant-baseline="middle" transform="rotate(0, 1325.0, 562.5)">BS</text>
<text x="1325.0" y="675" font-size="18" fill="black" text-anchor="middle" dominant-baseline="middle" transform="rotate(0, 1325.0, 675)">r = 0.5</text>
<rect x="1349.95" y="496.0" width="50.1" height="8" fill="black" />
<rect x="1349.95" y="621.0" width="50.1" height="8" fill="black" />
<rect x="1399.95" y="621.0" width="50.1" height="8" fill="black" />
<rect x="1450" y="600.0" width="50" height="50" fill="#e8532b" stroke="black" rx="5" ry="5" />
<text x="1475.0" y="627" font-size="25" fill="white" text-anchor="middle" dominant-baseline="middle" transform="rotate(0, 1475.0, 627)">PS</text>
<text x="1475.0" y="675" font-size="18" fill="black" text-anchor="middle" dominant-baseline="middle" transform="rotate(0, 1475.0, 675)">φ = π/2</text>
<rect x="1499.95" y="621.0" width="50.1" height="8" fill="black" />
<rect x="1399.95" y="496.0" width="150.1" height="8" fill="black" />
<rect x="1549.95" y="496.0" width="50.1" height="8" fill="black" />
<rect x="1549.95" y="621.0" width="50.1" height="8" fill="black" />
<rect x="1600" y="475.0" width="50" height="175" fill="#3e368d" stroke="black" rx="5" ry="5" />
<text x="1625.0" y="562.5" font-size="25" fill="white" text-anchor="middle" dominant-baseline="middle" transform="rotate(0, 1625.0, 562.5)">BS</text>
<text x="1625.0" y="675" font-size="18" fill="black" text-anchor="middle" dominant-baseline="middle" transform="rotate(0, 1625.0, 675)">r = 0.5</text>
<rect x="1649.95" y="496.0" width="50.1" height="8" fill="black" />
<rect x="1649.95" y="621.0" width="50.1" height="8" fill="black" />
<rect x="1699.95" y="621.0" width="50.1" height="8" fill="black" />
<rect x="1750" y="600.0" width="50" height="50" fill="#e8532b" stroke="black" rx="5" ry="5" />
<text x="1775.0" y="627" font-size="25" fill="white" text-anchor="middle" dominant-baseline="middle" transform="rotate(0, 1775.0, 627)">PS</text>
<text x="1775.0" y="675" font-size="18" fill="black" text-anchor="middle" dominant-baseline="middle" transform="rotate(0, 1775.0, 675)">φ = 0</text>
<rect x="1799.95" y="621.0" width="50.1" height="8" fill="black" />
<rect x="649.95" y="121.0" width="1250.1" height="8" fill="black" />
<rect x="799.95" y="246.0" width="1100.1" height="8" fill="black" />
<rect x="1099.95" y="371.0" width="800.1" height="8" fill="black" />
<rect x="1699.95" y="496.0" width="200.1" height="8" fill="black" />
<rect x="1849.95" y="621.0" width="50.1" height="8" fill="black" />
<rect x="1399.95" y="746.0" width="500.1" height="8" fill="black" />
<circle cx="150" cy="125" r="25" fill="#3e368d" stroke="black" />
<text x="150" y="127.5" font-size="30" fill="white" text-anchor="middle" dominant-baseline="middle" transform="rotate(0, 150, 127.5)">0</text>
<circle cx="150" cy="750" r="25" fill="#3e368d" stroke="black" />
<text x="150" y="752.5" font-size="30" fill="white" text-anchor="middle" dominant-baseline="middle" transform="rotate(0, 150, 752.5)">0</text>
<circle cx="1900" cy="125" r="25" fill="#3e368d" stroke="black" />
<text x="1900" y="127.5" font-size="30" fill="white" text-anchor="middle" dominant-baseline="middle" transform="rotate(0, 1900, 127.5)">0</text>
<circle cx="1900" cy="750" r="25" fill="#3e368d" stroke="black" />
<text x="1900" y="752.5" font-size="30" fill="white" text-anchor="middle" dominant-baseline="middle" transform="rotate(0, 1900, 752.5)">0</text>
</svg>