<?xml version="1.0" encoding="UTF-8"?>
<svg xmlns="http://www.w3.org/2000/svg" xmlns:xlink="http://www.w3.org/1999/xlink"
     width="1041.6" height="310.0" viewBox="0 0 2100 625">
<defs>
</defs>
<rect x="100" y="25" width="1900" height="575" fill="none" stroke="black" />
<rect x="92" y="124.5" width="8" height="1" fill="black" />
<rect x="92" y="249.5" width="8" height="1" fill="black" />
<rect x="92" y="374.5" width="8" height="1" fill="black" />
<rect x="92" y="499.5" width="8" height="1" fill="black" />
<text x="80" y="127" font-size="25" fill="black" text-anchor="end" dominant-baseline="middle" transform="rotate(0, 80, 127)">0</text>
<text x="80" y="252" font-size="25" fill="black" text-anchor="end" dominant-baseline="middle" transform="rotate(0, 80, 252)">1</text>
<text x="80" y="377" font-size="25" fill="black" text-anchor="end" dominant-baseline="middle" transform="rotate(0, 80, 377)">2</text>
<text x="80" y="502" font-size="25" fill="black" text-anchor="end" dominant-baseline="middle" transform="rotate(0, 80, 502)">3</text>
<rect x="149.95" y="121.0" width="50.1" height="8" fill="black" />
<rect x="200" y="100.0" width="50" height="50" fill="#e8532b" stroke="black" rx="5" ry="5" />
<text x="225.0" y="127" font-size="25" fill="white" text-anchor="middle" dominant-baseline="middle" transform="rotate(0, 225.0, 127)">PS</text>
<text x="225.0" y="175" font-size="18" fill="black" text-anchor="middle" dominant-baseline="middle" transform="rotate(0, 225.0, 175)">φ = 0.1344</text>
<rect x="249.95" y="121.0" width="50.1" height="8" fill="black" />
<rect x="149.95" y="246.0" width="150.1" height="8" fill="black" />
<rect x="299.95" y="121.0" width="50.1" height="8" fill="black" />
<rect x="299.95" y="246.0" width="50.1" height="8" fill="black" />
<rect x="350" y="100.0" width="50" height="175" fill="#3e368d" stroke="black" rx="5" ry="5" />
<text x="375.0" y="187.5" font-size="25" fill="white" text-anchor="middle" dominant-baseline="middle" transform="rotate(0, 375.0, 187.5)">BS</text>
<text x="375.0" y="300" font-size="18" fill="black" text-anchor="middle" dominant-baseline="middle" transform="rotate(0, 375.0, 300)">r = 0.5</text>
<rect x="399.95" y="121.0" width="50.1" height="8" fill="black" />
<rect x="399.95" y="246.0" width="50.1" height="8" fill="black" />
<rect x="449.95" y="246.0" width="50.1" height="8" fill="black" />
<rect x="500" y="225.0" width="50" height="50" fill="#e8532b" stroke="black" rx="5" ry="5" />
<text x="525.0" y="252" font-size="25" fill="white" text-anchor="middle" dominant-baseline="middle" transform="rotate(0, 525.0, 252)">PS</text>
<text x="525.0" y="300" font-size="18" fill="black" text-anchor="middle" dominant-baseline="middle" transform="rotate(0, 525.0, 300)">φ = 0.8474</text>
<rect x="549.95" y="246.0" width="50.1" height="8" fill="black" />
<rect x="449.95" y="121.0" width="150.1" height="8" fill="black" />
<rect x="599.95" y="121.0" width="50.1" height="8" fill="black" />
<rect x="599.95" y="246.0" width="50.1" height="8" fill="black" />
<rect x="650" y="100.0" width="50" height="175" fill="#3e368d" stroke="black" rx="5" ry="5" />
<text x="675.0" y="187.5" font-size="25" fill="white" text-anchor="middle" dominant-baseline="middle" transform="rotate(0, 675.0, 187.5)">BS</text>
<text x="675.0" y="300" font-size="18" fill="black" text-anchor="middle" dominant-baseline="middle" transform="rotate(0, 675.0, 300)">r = 0.5</text>
<rect x="699.95" y="121.0" width="50.1" height="8" fill="black" />
<rect x="699.95" y="246.0" width="50.1" height="8" fill="black" />
<rect x="749.95" y="246.0" width="50.1" height="8" fill="black" />
<rect x="800" y="225.0" width="50" height="50" fill="#e8532b" stroke="black" rx="5" ry="5" />
<text x="825.0" y="252" font-size="25" fill="white" text-anchor="middle" dominant-baseline="middle" transform="rotate(0, 825.0, 252)">PS</text>
<text x="825.0" y="300" font-size="18" fill="black" text-anchor="middle" dominant-baseline="middle" transform="rotate(0, 825.0, 300)">φ = 0.7638</text>
<rect x="849.95" y="246.0" width="50.1" height="8" fill="black" />
<rect x="149.95" y="371.0" width="750.1" height="8" fill="black" />
<rect x="899.95" y="246.0" width="50.1" height="8" fill="black" />
<rect x="899.95" y="371.0" width="50.1" height="8" fill="black" />
<rect x="950" y="225.0" width="50" height="175" fill="#3e368d" stroke="black" rx="5" ry="5" />
<text x="975.0" y="312.5" font-size="25" fill="white" text-anchor="middle" dominant-baseline="middle" transform="rotate(0, 975.0, 312.5)">BS</text>
<text x="975.0" y="425" font-size="18" fill="black" text-anchor="middle" dominant-baseline="middle" transform="rotate(0, 975.0, 425)">r = 0.5</text>
<rect x="999.95" y="246.0" width="50.1" height="8" fill="black" />
<rect x="999.95" y="371.0" width="50.1" height="8" fill="black" />
<rect x="1049.95" y="371.0" width="50.1" height="8" fill="black" />
<rect x="1100" y="350.0" width="50" height="50" fill="#e8532b" stroke="black" rx="5" ry="5" />
<text x="1125.0" y="377" font-size="25" fill="white" text-anchor="middle" dominant-baseline="middle" transform="rotate(0, 1125.0, 377)">PS</text>
<text x="1125.0" y="425" font-size="18" fill="black" text-anchor="middle" dominant-baseline="middle" transform="rotate(0, 1125.0, 425)">φ = 0.2551</text>
<rect x="1149.95" y="371.0" width="50.1" height="8" fill="black" />
<rect x="1049.95" y="246.0" width="150.1" height="8" fill="black" />
<rect x="1199.95" y="246.0" width="50.1" height="8" fill="black" />
<rect x="1199.95" y="371.0" width="50.1" height="8" fill="black" />
<rect x="1250" y="225.0" width="50" height="175" fill="#3e368d" stroke="black" rx="5" ry="5" />
<text x="1275.0" y="312.5" font-size="25" fill="white" text-anchor="middle" dominant-baseline="middle" transform="rotate(0, 1275.0, 312.5)">BS</text>
<text x="1275.0" y="425" font-size="18" fill="black" text-anchor="middle" dominant-baseline="middle" transform="rotate(0, 1275.0, 425)">r = 0.5</text>
<rect x="1299.95" y="246.0" width="50.1" height="8" fill="black" />
<rect x="1299.95" y="371.0" width="50.1" height="8" fill="black" />
<rect x="749.95" y="121.0" width="50.1" height="8" fill="black" />
<rect x="800" y="100.0" width="50" height="50" fill="#e8532b" stroke="black" rx="5" ry="5" />
<text x="825.0" y="127" font-size="25" fill="white" text-anchor="middle" dominant-baseline="middle" transform="rotate(0, 825.0, 127)">PS</text>
<text x="825.0" y="175" font-size="18" fill="black" text-anchor="middle" dominant-baseline="middle" transform="rotate(0, 825.0, 175)">φ = 0.4954</text>
<rect x="849.95" y="121.0" width="50.1" height="8" fill="black" />
<rect x="899.95" y="121.0" width="450.1" height="8" fill="black" />
<rect x="1349.95" y="121.0" width="50.1" height="8" fill="black" />
<rect x="1349.95" y="246.0" width="50.1" height="8" fill="black" />
<rect x="1400" y="100.0" width="50" height="175" fill="#3e368d" stroke="black" rx="5" ry="5" />
<text x="1425.0" y="187.5" font-size="25" fill="white" text-anchor="middle" dominant-baseline="middle" transform="rotate(0, 1425.0, 187.5)">BS</text>
<text x="1425.0" y="300" font-size="18" fill="black" text-anchor="middle" dominant-baseline="middle" transform="rotate(0, 1425.0, 300)">r = 0.5</text>
<rect x="1449.95" y="121.0" width="50.1" height="8" fill="black" />
<rect x="1449.95" y="246.0" width="50.1" height="8" fill="black" />
<rect x="1499.95" y="246.0" width="50.1" height="8" fill="black" />
<rect x="1550" y="225.0" width="50" height="50" fill="#e8532b" stroke="black" rx="5" ry="5" />
<text x="1575.0" y="252" font-size="25" fill="white" text-anchor="middle" dominant-baseline="middle" transform="rotate(0, 1575.0, 252)">PS</text>
<text x="1575.0" y="300" font-size="18" fill="black" text-anchor="middle" dominant-baseline="middle" transform="rotate(0, 1575.0, 300)">φ = 0.4495</text>
<rect x="1599.95" y="246.0" width="50.1" height="8" fill="black" />
<rect x="1499.95" y="121.0" width="150.1" height="8" fill="black" />
<rect x="1649.95" y="121.0" width="50.1" height="8" fill="black" />
<rect x="1649.95" y="246.0" width="50.1" height="8" fill="black" />
<rect x="1700" y="100.0" width="50" height="175" fill="#3e368d" stroke="black" rx="5" ry="5" />
<text x="1725.0" y="187.5" font-size="25" fill="white" text-anchor="middle" dominant-baseline="middle" transform="rotate(0, 1725.0, 187.5)">BS</text>
<text x="1725.0" y="300" font-size="18" fill="black" text-anchor="middle" dominant-baseline="middle" transform="rotate(0, 1725.0, 300)">r = 0.5</text>
<rect x="1749.95" y="121.0" width="50.1" height="8" fill="black" />
<rect x="1749.95" y="246.0" width="50.1" height="8" fill="black" />
<rect x="1349.95" y="371.0" width="50.1" height="8" fill="black" />
<rect x="1400" y="350.0" width="50" height="50" fill="#e8532b" stroke="black" rx="5" ry="5" />
<text x="1425.0" y="377" font-size="25" fill="white" text-anchor="middle" dominant-baseline="middle" transform="rotate(0, 1425.0, 377)">PS</text>
<text x="1425.0" y="425" font-size="18" fill="black" text-anchor="middle" dominant-baseline="middle" transform="rotate(0, 1425.0, 425)">φ = 0.6516</text>
<rect x="1449.95" y="371.0" width="50.1" height="8" fill="black" />
<rect x="149.95" y="496.0" width="1350.1" height="8" fill="black" />
<rect x="1499.95" y="371.0" width="50.1" height="8" fill="black" />
<rect x="1499.95" y="496.0" width="50.1" height="8" fill="black" />
<rect x="1550" y="350.0" width="50" height="175" fill="#3e368d" stroke="black" rx="5" ry="5" />
<text x="1575.0" y="437.5" font-size="25" fill="white" text-anchor="middle" dominant-baseline="middle" transform="rotate(0, 1575.0, 437.5)">BS</text>
<text x="1575.0" y="550" font-size="18" fill="black" text-anchor="middle" dominant-baseline="middle" transform="rotate(0, 1575.0, 550)">r = 0.5</text>
<rect x="1599.95" y="371.0" width="50.1" height="8" fill="black" />
<rect x="1599.95" y="496.0" width="50.1" height="8" fill="black" />
<rect x="1649.95" y="496.0" width="50.1" height="8" fill="black" />
<rect x="1700" y="475.0" width="50" height="50" fill="#e8532b" stroke="black" rx="5" ry="5" />
<text x="1725.0" y="502" font-size="25" fill="white" text-anchor="middle" dominant-baseline="middle" transform="rotate(0, 1725.0, 502)">PS</text>
<text x="1725.0" y="550" font-size="18" fill="black" text-anchor="middle" dominant-baseline="middle" transform="rotate(0, 1725.0, 550)">φ = 0.7887</text>
<rect x="1749.95" y="496.0" width="50.1" height="8" fill="black" />
<rect x="1649.95" y="371.0" width="150.1" height="8" fill="black" />
<rect x="1799.95" y="371.0" width="50.1" height="8" fill="black" />
<rect x="1799.95" y="496.0" width="50.1" height="8" fill="black" />
<rect x="1850" y="350.0" width="50" height="175" fill="#3e368d" stroke="black" rx="5" ry="5" />
<text x="1875.0" y="437.5" font-size="25" fill="white" text-anchor="middle" dominant-baseline="middle" transform="rotate(0, 1875.0, 437.5)">BS</text>
<text x="1875.0" y="550" font-size="18" fill="black" text-anchor="middle" dominant-baseline="middle" transform="rotate(0, 1875.0, 550)">r = 0.5</text>
<rect x="1899.95" y="371.0" width="50.1" height="8" fill="black" />
<rect x="1899.95" y="496.0" width="50.1" height="8" fill="black" />
<rect x="1799.95" y="121.0" width="150.1" height="8" fill="black" />
<rect x="1799.95" y="246.0" width="150.1" height="8" fill="black" />
</svg>